<svg width="25" height="24" viewBox="0 0 25 24" fill="none" xmlns="http://www.w3.org/2000/svg">
<path fill-rule="evenodd" clip-rule="evenodd" d="M3.53315 3.09467C4.86762 1.7602 6.8645 1.25 9.43848 1.25H15.4385C18.0124 1.25 20.0093 1.7602 21.3438 3.09467C22.6783 4.42914 23.1885 6.42603 23.1885 9V15C23.1885 17.574 22.6783 19.5709 21.3438 20.9053C20.0093 22.2398 18.0124 22.75 15.4385 22.75H9.43848C6.8645 22.75 4.86762 22.2398 3.53315 20.9053C2.19868 19.5709 1.68848 17.574 1.68848 15V9C1.68848 6.42603 2.19868 4.42914 3.53315 3.09467ZM4.59381 4.15533C3.67828 5.07086 3.18848 6.57397 3.18848 9V15C3.18848 17.426 3.67828 18.9291 4.59381 19.8447C5.50934 20.7602 7.01245 21.25 9.43848 21.25H15.4385C17.8645 21.25 19.3676 20.7602 20.2831 19.8447C21.1987 18.9291 21.6885 17.426 21.6885 15V9C21.6885 6.57397 21.1987 5.07086 20.2831 4.15533C19.3676 3.2398 17.8645 2.75 15.4385 2.75H9.43848C7.01245 2.75 5.50934 3.2398 4.59381 4.15533Z" fill="#6F7585"/>
<path fill-rule="evenodd" clip-rule="evenodd" d="M9.43848 6.75C8.74812 6.75 8.18848 7.30964 8.18848 8C8.18848 8.69036 8.74812 9.25 9.43848 9.25C10.1288 9.25 10.6885 8.69036 10.6885 8C10.6885 7.30964 10.1288 6.75 9.43848 6.75ZM6.68848 8C6.68848 6.48122 7.91969 5.25 9.43848 5.25C10.9573 5.25 12.1885 6.48122 12.1885 8C12.1885 9.51878 10.9573 10.75 9.43848 10.75C7.91969 10.75 6.68848 9.51878 6.68848 8Z" fill="#6F7585"/>
<path fill-rule="evenodd" clip-rule="evenodd" d="M20.3198 13.0694C19.8209 12.6408 18.9761 12.6408 18.4772 13.0694L14.3172 16.6394C14.3171 16.6394 14.3173 16.6393 14.3172 16.6394C13.2561 17.5506 11.5808 17.5507 10.5198 16.6394L10.5134 16.6338L10.1869 16.3469C9.73849 15.9642 8.97216 15.9172 8.45632 16.2633L3.52654 19.5731C3.18265 19.804 2.71669 19.7124 2.4858 19.3685C2.25491 19.0246 2.34652 18.5587 2.69041 18.3278L7.62041 15.0178C8.6835 14.3046 10.1953 14.3765 11.1672 15.2116L11.1736 15.217L11.5 15.5039C11.9993 15.9301 12.8418 15.9293 13.3398 15.5015L17.4998 11.9315C17.4997 11.9316 17.4999 11.9314 17.4998 11.9315C18.5609 11.0203 20.2362 11.0202 21.2971 11.9315C21.2971 11.9315 21.2972 11.9315 21.2971 11.9315L22.9271 13.3315C23.2414 13.6014 23.2773 14.0749 23.0074 14.3891C22.7375 14.7033 22.264 14.7393 21.9498 14.4694L20.3198 13.0694Z" fill="#6F7585"/>
</svg>
