<svg width="25" height="24" viewBox="0 0 25 24" fill="none" xmlns="http://www.w3.org/2000/svg">
<path fill-rule="evenodd" clip-rule="evenodd" d="M14.6787 6.5C14.6787 6.08579 15.0145 5.75 15.4287 5.75H16.9387C20.3838 5.75 23.1887 8.56667 23.1887 12C23.1887 15.4451 20.372 18.25 16.9387 18.25H15.4287C15.0145 18.25 14.6787 17.9142 14.6787 17.5C14.6787 17.0858 15.0145 16.75 15.4287 16.75H16.9387C19.5454 16.75 21.6887 14.6149 21.6887 12C21.6887 9.39333 19.5536 7.25 16.9387 7.25H15.4287C15.0145 7.25 14.6787 6.91421 14.6787 6.5Z" fill="#6F7585"/>
<path fill-rule="evenodd" clip-rule="evenodd" d="M1.68848 12C1.68848 8.55579 4.49426 5.75 7.93848 5.75H9.43848C9.85269 5.75 10.1885 6.08579 10.1885 6.5C10.1885 6.91421 9.85269 7.25 9.43848 7.25H7.93848C5.32269 7.25 3.18848 9.38421 3.18848 12C3.18848 14.6067 5.32358 16.75 7.93848 16.75H9.43848C9.85269 16.75 10.1885 17.0858 10.1885 17.5C10.1885 17.9142 9.85269 18.25 9.43848 18.25H7.93848C4.49338 18.25 1.68848 15.4333 1.68848 12Z" fill="#6F7585"/>
<path fill-rule="evenodd" clip-rule="evenodd" d="M7.68848 12C7.68848 11.5858 8.02426 11.25 8.43848 11.25H16.4385C16.8527 11.25 17.1885 11.5858 17.1885 12C17.1885 12.4142 16.8527 12.75 16.4385 12.75H8.43848C8.02426 12.75 7.68848 12.4142 7.68848 12Z" fill="#6F7585"/>
</svg>
