<svg width="25" height="24" viewBox="0 0 25 24" fill="none" xmlns="http://www.w3.org/2000/svg">
<path fill-rule="evenodd" clip-rule="evenodd" d="M3.53315 3.09467C4.86762 1.7602 6.8645 1.25 9.43848 1.25H15.4385C18.0124 1.25 20.0093 1.7602 21.3438 3.09467C22.6783 4.42914 23.1885 6.42603 23.1885 9V15C23.1885 17.574 22.6783 19.5709 21.3438 20.9053C20.0093 22.2398 18.0124 22.75 15.4385 22.75H9.43848C6.8645 22.75 4.86762 22.2398 3.53315 20.9053C2.19868 19.5709 1.68848 17.574 1.68848 15V9C1.68848 6.42603 2.19868 4.42914 3.53315 3.09467ZM4.59381 4.15533C3.67828 5.07086 3.18848 6.57397 3.18848 9V15C3.18848 17.426 3.67828 18.9291 4.59381 19.8447C5.50934 20.7602 7.01245 21.25 9.43848 21.25H15.4385C17.8645 21.25 19.3676 20.7602 20.2831 19.8447C21.1987 18.9291 21.6885 17.426 21.6885 15V9C21.6885 6.57397 21.1987 5.07086 20.2831 4.15533C19.3676 3.2398 17.8645 2.75 15.4385 2.75H9.43848C7.01245 2.75 5.50934 3.2398 4.59381 4.15533Z" fill="#6F7585"/>
<path fill-rule="evenodd" clip-rule="evenodd" d="M18.9688 5.46967C19.2617 5.76256 19.2617 6.23744 18.9688 6.53033L6.96881 18.5303C6.67591 18.8232 6.20104 18.8232 5.90815 18.5303C5.61525 18.2374 5.61525 17.7626 5.90815 17.4697L17.9081 5.46967C18.201 5.17678 18.6759 5.17678 18.9688 5.46967Z" fill="#6F7585"/>
<path fill-rule="evenodd" clip-rule="evenodd" d="M13.6885 6C13.6885 5.58579 14.0243 5.25 14.4385 5.25H18.4385C18.8527 5.25 19.1885 5.58579 19.1885 6V10C19.1885 10.4142 18.8527 10.75 18.4385 10.75C18.0243 10.75 17.6885 10.4142 17.6885 10V6.75H14.4385C14.0243 6.75 13.6885 6.41421 13.6885 6Z" fill="#6F7585"/>
<path fill-rule="evenodd" clip-rule="evenodd" d="M6.43848 13.25C6.85269 13.25 7.18848 13.5858 7.18848 14V17.25H10.4385C10.8527 17.25 11.1885 17.5858 11.1885 18C11.1885 18.4142 10.8527 18.75 10.4385 18.75H6.43848C6.02426 18.75 5.68848 18.4142 5.68848 18V14C5.68848 13.5858 6.02426 13.25 6.43848 13.25Z" fill="#6F7585"/>
<path fill-rule="evenodd" clip-rule="evenodd" d="M5.90815 5.46967C6.20104 5.17678 6.67591 5.17678 6.96881 5.46967L18.9688 17.4697C19.2617 17.7626 19.2617 18.2374 18.9688 18.5303C18.6759 18.8232 18.201 18.8232 17.9081 18.5303L5.90815 6.53033C5.61525 6.23744 5.61525 5.76256 5.90815 5.46967Z" fill="#6F7585"/>
<path fill-rule="evenodd" clip-rule="evenodd" d="M5.68848 6C5.68848 5.58579 6.02426 5.25 6.43848 5.25H10.4385C10.8527 5.25 11.1885 5.58579 11.1885 6C11.1885 6.41421 10.8527 6.75 10.4385 6.75H7.18848V10C7.18848 10.4142 6.85269 10.75 6.43848 10.75C6.02426 10.75 5.68848 10.4142 5.68848 10V6Z" fill="#6F7585"/>
<path fill-rule="evenodd" clip-rule="evenodd" d="M18.4385 13.25C18.8527 13.25 19.1885 13.5858 19.1885 14V18C19.1885 18.4142 18.8527 18.75 18.4385 18.75H14.4385C14.0243 18.75 13.6885 18.4142 13.6885 18C13.6885 17.5858 14.0243 17.25 14.4385 17.25H17.6885V14C17.6885 13.5858 18.0243 13.25 18.4385 13.25Z" fill="#6F7585"/>
</svg>
