<svg width="25" height="24" viewBox="0 0 25 24" fill="none" xmlns="http://www.w3.org/2000/svg">
<path fill-rule="evenodd" clip-rule="evenodd" d="M16.6386 4.01953C15.5437 4.01953 14.8086 4.82246 14.8086 5.84949V9.06952C14.8086 10.0966 15.5438 10.8995 16.6386 10.8995H21.6886V5.84949C21.6886 4.84372 20.8644 4.01953 19.8586 4.01953H16.6386ZM13.3086 5.84949C13.3086 4.03652 14.6734 2.51953 16.6386 2.51953H19.8586C21.6928 2.51953 23.1886 4.01526 23.1886 5.84949V11.6495C23.1886 12.0637 22.8528 12.3995 22.4386 12.3995H16.6386C14.6734 12.3995 13.3086 10.8825 13.3086 9.06952V5.84949Z" fill="#6F7585"/>
<path fill-rule="evenodd" clip-rule="evenodd" d="M22.4383 10.8994C22.8525 10.8994 23.1883 11.2352 23.1883 11.6494C23.1883 14.688 22.9118 16.6225 22.1021 18.0631C21.2839 19.5189 19.9773 20.3625 18.2914 21.3641C17.9353 21.5757 17.4751 21.4585 17.2635 21.1024C17.052 20.7463 17.1691 20.2861 17.5252 20.0746C19.2394 19.0562 20.1978 18.3899 20.7945 17.3282C21.3998 16.2513 21.6883 14.6608 21.6883 11.6494C21.6883 11.2352 22.0241 10.8994 22.4383 10.8994Z" fill="#6F7585"/>
<path fill-rule="evenodd" clip-rule="evenodd" d="M5.00871 4.01953C3.91386 4.01953 3.17871 4.82245 3.17871 5.84949V9.06952C3.17871 10.0966 3.91388 10.8995 5.00871 10.8995H10.0687V5.84949C10.0687 4.84372 9.24451 4.01953 8.23871 4.01953H5.00871ZM10.8137 12.3995C10.8154 12.3995 10.817 12.3995 10.8187 12.3995C11.2329 12.3995 11.5687 12.0637 11.5687 11.6495V5.84949C11.5687 4.01526 10.0729 2.51953 8.23871 2.51953H5.00871C3.04357 2.51953 1.67871 4.03652 1.67871 5.84949V9.06952C1.67871 10.8825 3.04354 12.3995 5.00871 12.3995H10.8087C10.8104 12.3995 10.812 12.3995 10.8137 12.3995Z" fill="#6F7585"/>
<path fill-rule="evenodd" clip-rule="evenodd" d="M10.8084 10.8994C11.2227 10.8994 11.5584 11.2352 11.5584 11.6494C11.5584 14.688 11.282 16.6225 10.4722 18.0631C9.654 19.5189 8.34738 20.3625 6.66152 21.3641C6.30541 21.5757 5.84522 21.4585 5.63365 21.1024C5.42208 20.7463 5.53925 20.2861 5.89536 20.0746C7.60949 19.0562 8.56787 18.3899 9.16464 17.3282C9.76991 16.2513 10.0584 14.6608 10.0584 11.6494C10.0584 11.2352 10.3942 10.8994 10.8084 10.8994Z" fill="#6F7585"/>
</svg>
