<svg width="25" height="24" viewBox="0 0 25 24" fill="none" xmlns="http://www.w3.org/2000/svg">
<path fill-rule="evenodd" clip-rule="evenodd" d="M9.68848 19C9.68848 18.5858 10.0243 18.25 10.4385 18.25H20.4385C20.8527 18.25 21.1885 18.5858 21.1885 19C21.1885 19.4142 20.8527 19.75 20.4385 19.75H10.4385C10.0243 19.75 9.68848 19.4142 9.68848 19Z" fill="#6F7585"/>
<path fill-rule="evenodd" clip-rule="evenodd" d="M9.68848 12C9.68848 11.5858 10.0243 11.25 10.4385 11.25H20.4385C20.8527 11.25 21.1885 11.5858 21.1885 12C21.1885 12.4142 20.8527 12.75 20.4385 12.75H10.4385C10.0243 12.75 9.68848 12.4142 9.68848 12Z" fill="#6F7585"/>
<path fill-rule="evenodd" clip-rule="evenodd" d="M9.68848 5C9.68848 4.58579 10.0243 4.25 10.4385 4.25H20.4385C20.8527 4.25 21.1885 4.58579 21.1885 5C21.1885 5.41421 20.8527 5.75 20.4385 5.75H10.4385C10.0243 5.75 9.68848 5.41421 9.68848 5Z" fill="#6F7585"/>
<path d="M7.43848 5C7.43848 6.10457 6.54305 7 5.43848 7C4.33391 7 3.43848 6.10457 3.43848 5C3.43848 3.89543 4.33391 3 5.43848 3C6.54305 3 7.43848 3.89543 7.43848 5Z" fill="#6F7585"/>
<path d="M7.43848 12C7.43848 13.1046 6.54305 14 5.43848 14C4.33391 14 3.43848 13.1046 3.43848 12C3.43848 10.8954 4.33391 10 5.43848 10C6.54305 10 7.43848 10.8954 7.43848 12Z" fill="#6F7585"/>
<path d="M7.43848 19C7.43848 20.1046 6.54305 21 5.43848 21C4.33391 21 3.43848 20.1046 3.43848 19C3.43848 17.8954 4.33391 17 5.43848 17C6.54305 17 7.43848 17.8954 7.43848 19Z" fill="#6F7585"/>
</svg>
