<svg width="25" height="24" viewBox="0 0 25 24" fill="none" xmlns="http://www.w3.org/2000/svg">
<path fill-rule="evenodd" clip-rule="evenodd" d="M9.68945 19.5C9.68945 19.0858 10.0252 18.75 10.4395 18.75H20.4395C20.8537 18.75 21.1895 19.0858 21.1895 19.5C21.1895 19.9142 20.8537 20.25 20.4395 20.25H10.4395C10.0252 20.25 9.68945 19.9142 9.68945 19.5Z" fill="#6F7585"/>
<path fill-rule="evenodd" clip-rule="evenodd" d="M9.68945 12.5C9.68945 12.0858 10.0252 11.75 10.4395 11.75H20.4395C20.8537 11.75 21.1895 12.0858 21.1895 12.5C21.1895 12.9142 20.8537 13.25 20.4395 13.25H10.4395C10.0252 13.25 9.68945 12.9142 9.68945 12.5Z" fill="#6F7585"/>
<path fill-rule="evenodd" clip-rule="evenodd" d="M9.68945 5.5C9.68945 5.08579 10.0252 4.75 10.4395 4.75H20.4395C20.8537 4.75 21.1895 5.08579 21.1895 5.5C21.1895 5.91421 20.8537 6.25 20.4395 6.25H10.4395C10.0252 6.25 9.68945 5.91421 9.68945 5.5Z" fill="#6F7585"/>
<path d="M6.73881 6.5105C6.73881 6.78084 6.51965 7 6.24931 7C5.97896 7 5.75981 6.78084 5.75981 6.5105V5.23486C5.75981 5.20231 5.75981 5.1429 5.75981 5.05664C5.75981 4.96875 5.76062 4.87191 5.76225 4.76611C5.76341 4.72824 5.76468 4.69173 5.76606 4.65657C5.76825 4.60034 5.69549 4.57097 5.65483 4.60986C5.61902 4.64567 5.58403 4.67904 5.54985 4.70996L5.45161 4.79104C5.28239 4.93069 5.03181 4.90582 4.89335 4.73561C4.75565 4.56635 4.78115 4.31753 4.95031 4.1797L5.69284 3.57473C5.80722 3.48155 5.95023 3.43066 6.09776 3.43066C6.4518 3.43066 6.73881 3.71767 6.73881 4.07172V6.5105Z" fill="#6F7585"/>
<path d="M7.17822 13.6016C7.17822 13.8213 7.00005 13.9995 6.78027 13.9995H5.03777C4.78931 13.9995 4.58789 13.7981 4.58789 13.5496C4.58789 13.4312 4.6346 13.3175 4.71789 13.2333L5.45947 12.4834C5.64014 12.2946 5.78011 12.1432 5.87939 12.0293C5.98031 11.9154 6.05111 11.8185 6.0918 11.7388C6.13249 11.659 6.15283 11.576 6.15283 11.4897C6.15283 11.384 6.11865 11.3075 6.05029 11.2603C5.98193 11.2131 5.90137 11.1895 5.80859 11.1895C5.69629 11.1895 5.58236 11.222 5.4668 11.2871C5.4478 11.2977 5.42838 11.3091 5.40852 11.3214C5.21468 11.4415 4.95804 11.4292 4.80992 11.2558C4.66478 11.0859 4.68093 10.8295 4.86147 10.6978C4.87115 10.6908 4.88086 10.6837 4.89062 10.6768C5.01107 10.5889 5.15348 10.5173 5.31787 10.4619C5.48226 10.4066 5.68245 10.3789 5.91846 10.3789C6.16097 10.3789 6.37093 10.4212 6.54834 10.5059C6.72738 10.5905 6.86572 10.7069 6.96338 10.855C7.06104 11.0015 7.10986 11.1683 7.10986 11.3555C7.10986 11.5622 7.07161 11.7469 6.99512 11.9097C6.92025 12.0708 6.80713 12.2327 6.65576 12.3955C6.50439 12.5566 6.31559 12.7397 6.08936 12.9448L5.83373 13.1742C5.83016 13.1774 5.82812 13.1819 5.82812 13.1867C5.82812 13.1961 5.83568 13.2036 5.84501 13.2036H6.78027C7.00005 13.2036 7.17822 13.3818 7.17822 13.6016Z" fill="#6F7585"/>
<path d="M7.05811 18.2041C7.05811 18.3734 7.02148 18.5199 6.94824 18.6436C6.87663 18.7656 6.7806 18.8657 6.66016 18.9438C6.54317 19.0208 6.41515 19.0788 6.27607 19.1178C6.27221 19.1189 6.26953 19.1224 6.26953 19.1264C6.26953 19.1309 6.27291 19.1347 6.27736 19.1353C6.55839 19.1717 6.77551 19.2584 6.92871 19.3955C7.08496 19.5322 7.16309 19.7267 7.16309 19.979C7.16309 20.1743 7.111 20.3534 7.00684 20.5161C6.90267 20.6772 6.74072 20.8066 6.521 20.9043C6.30127 21.0003 6.01888 21.0483 5.67383 21.0483C5.44271 21.0483 5.24577 21.0312 5.08301 20.9971C4.99771 20.9792 4.91376 20.9577 4.83115 20.9326C4.69555 20.8915 4.60938 20.7623 4.60938 20.6206V20.5643C4.60938 20.3317 4.85932 20.1786 5.08545 20.2329C5.24984 20.2703 5.39958 20.2891 5.53467 20.2891C5.76904 20.2891 5.92855 20.2557 6.01318 20.189C6.09945 20.1222 6.14258 20.0327 6.14258 19.9204C6.14258 19.839 6.12223 19.7699 6.08154 19.7129C6.04085 19.6559 5.96517 19.612 5.85449 19.5811C5.74544 19.5501 5.58838 19.5347 5.3833 19.5347C5.26195 19.5347 5.16357 19.4363 5.16357 19.3149V19.0342C5.16357 18.9101 5.26414 18.8096 5.38818 18.8096C5.57048 18.8096 5.71452 18.7933 5.82031 18.7607C5.92773 18.7282 6.00505 18.6842 6.05225 18.6289C6.09945 18.5719 6.12305 18.5068 6.12305 18.4336C6.12305 18.3392 6.08643 18.2692 6.01318 18.2236C5.93994 18.1781 5.8431 18.1553 5.72266 18.1553C5.61523 18.1553 5.51432 18.1699 5.41992 18.1992C5.32552 18.2285 5.24333 18.2611 5.17334 18.2969C5.0844 18.3424 4.97161 18.3155 4.91889 18.2306L4.80914 18.0539C4.70021 17.8786 4.74841 17.6459 4.93619 17.5602C4.99573 17.533 5.05769 17.5075 5.12207 17.4839C5.31413 17.4139 5.56478 17.3789 5.87402 17.3789C6.24186 17.3789 6.53076 17.4521 6.74072 17.5986C6.95231 17.7451 7.05811 17.9469 7.05811 18.2041Z" fill="#6F7585"/>
</svg>
