<svg width="25" height="24" viewBox="0 0 25 24" fill="none" xmlns="http://www.w3.org/2000/svg">
<path fill-rule="evenodd" clip-rule="evenodd" d="M10.6885 19C10.6885 18.5858 11.0243 18.25 11.4385 18.25H21.4385C21.8527 18.25 22.1885 18.5858 22.1885 19C22.1885 19.4142 21.8527 19.75 21.4385 19.75H11.4385C11.0243 19.75 10.6885 19.4142 10.6885 19Z" fill="#6F7585"/>
<path fill-rule="evenodd" clip-rule="evenodd" d="M10.6885 12.5C10.6885 12.0858 11.0243 11.75 11.4385 11.75H21.4385C21.8527 11.75 22.1885 12.0858 22.1885 12.5C22.1885 12.9142 21.8527 13.25 21.4385 13.25H11.4385C11.0243 13.25 10.6885 12.9142 10.6885 12.5Z" fill="#6F7585"/>
<path fill-rule="evenodd" clip-rule="evenodd" d="M10.6885 5.5C10.6885 5.08579 11.0243 4.75 11.4385 4.75H21.4385C21.8527 4.75 22.1885 5.08579 22.1885 5.5C22.1885 5.91421 21.8527 6.25 21.4385 6.25H11.4385C11.0243 6.25 10.6885 5.91421 10.6885 5.5Z" fill="#6F7585"/>
<path fill-rule="evenodd" clip-rule="evenodd" d="M7.96881 2.96967C8.2617 3.26256 8.2617 3.73744 7.96881 4.03033L4.96881 7.03033C4.67591 7.32322 4.20104 7.32322 3.90815 7.03033L2.90815 6.03033C2.61525 5.73744 2.61525 5.26256 2.90815 4.96967C3.20104 4.67678 3.67591 4.67678 3.96881 4.96967L4.43848 5.43934L6.90815 2.96967C7.20104 2.67678 7.67591 2.67678 7.96881 2.96967Z" fill="#6F7585"/>
<path fill-rule="evenodd" clip-rule="evenodd" d="M7.96881 9.96967C8.2617 10.2626 8.2617 10.7374 7.96881 11.0303L4.96881 14.0303C4.67591 14.3232 4.20104 14.3232 3.90815 14.0303L2.90815 13.0303C2.61525 12.7374 2.61525 12.2626 2.90815 11.9697C3.20104 11.6768 3.67591 11.6768 3.96881 11.9697L4.43848 12.4393L6.90815 9.96967C7.20104 9.67678 7.67591 9.67678 7.96881 9.96967Z" fill="#6F7585"/>
<path d="M7.43848 19C7.43848 20.1046 6.54305 21 5.43848 21C4.33391 21 3.43848 20.1046 3.43848 19C3.43848 17.8954 4.33391 17 5.43848 17C6.54305 17 7.43848 17.8954 7.43848 19Z" fill="#6F7585"/>
</svg>
