<svg width="25" height="24" viewBox="0 0 25 24" fill="none" xmlns="http://www.w3.org/2000/svg">
<path fill-rule="evenodd" clip-rule="evenodd" d="M7.31836 3.25C6.63257 3.25 6.06836 3.81421 6.06836 4.5V11.25H12.4384C14.6441 11.25 16.4384 9.45579 16.4384 7.25C16.4384 5.04421 14.6441 3.25 12.4384 3.25H7.31836ZM4.56836 4.5C4.56836 2.98579 5.80415 1.75 7.31836 1.75H12.4384C15.4726 1.75 17.9384 4.21579 17.9384 7.25C17.9384 10.2842 15.4726 12.75 12.4384 12.75H5.31836C4.90415 12.75 4.56836 12.4142 4.56836 12V4.5Z" fill="#6F7585"/>
<path fill-rule="evenodd" clip-rule="evenodd" d="M4.56836 12C4.56836 11.5858 4.90415 11.25 5.31836 11.25H14.8184C17.8526 11.25 20.3184 13.7158 20.3184 16.75C20.3184 19.7842 17.8526 22.25 14.8184 22.25H7.31836C5.80415 22.25 4.56836 21.0142 4.56836 19.5V12ZM6.06836 12.75V19.5C6.06836 20.1858 6.63257 20.75 7.31836 20.75H14.8184C17.0241 20.75 18.8184 18.9558 18.8184 16.75C18.8184 14.5442 17.0241 12.75 14.8184 12.75H6.06836Z" fill="#6F7585"/>
</svg>
