<svg width="25" height="24" viewBox="0 0 25 24" fill="none" xmlns="http://www.w3.org/2000/svg">
<path fill-rule="evenodd" clip-rule="evenodd" d="M2.68848 4.5C2.68848 4.08579 3.02426 3.75 3.43848 3.75H21.4385C21.8527 3.75 22.1885 4.08579 22.1885 4.5C22.1885 4.91421 21.8527 5.25 21.4385 5.25H3.43848C3.02426 5.25 2.68848 4.91421 2.68848 4.5Z" fill="#6F7585"/>
<path fill-rule="evenodd" clip-rule="evenodd" d="M11.2188 9.5C11.2188 9.08579 11.5545 8.75 11.9688 8.75H21.4388C21.853 8.75 22.1888 9.08579 22.1888 9.5C22.1888 9.91421 21.853 10.25 21.4388 10.25H11.9688C11.5545 10.25 11.2188 9.91421 11.2188 9.5Z" fill="#6F7585"/>
<path fill-rule="evenodd" clip-rule="evenodd" d="M2.68848 14.5C2.68848 14.0858 3.02426 13.75 3.43848 13.75H21.4385C21.8527 13.75 22.1885 14.0858 22.1885 14.5C22.1885 14.9142 21.8527 15.25 21.4385 15.25H3.43848C3.02426 15.25 2.68848 14.9142 2.68848 14.5Z" fill="#6F7585"/>
<path fill-rule="evenodd" clip-rule="evenodd" d="M11.2188 19.5C11.2188 19.0858 11.5545 18.75 11.9688 18.75H21.4388C21.853 18.75 22.1888 19.0858 22.1888 19.5C22.1888 19.9142 21.853 20.25 21.4388 20.25H11.9688C11.5545 20.25 11.2188 19.9142 11.2188 19.5Z" fill="#6F7585"/>
</svg>
