<svg width="25" height="24" viewBox="0 0 25 24" fill="none" xmlns="http://www.w3.org/2000/svg">
<path d="M7.43848 16.1045C7.43848 16.8041 6.59272 17.1544 6.09801 16.6598L2.73144 13.2939C2.54386 13.1064 2.43848 12.852 2.43848 12.5867V12.0042C2.43848 11.7592 2.52838 11.5228 2.69113 11.3398L6.14284 7.45734C6.59584 6.94782 7.43848 7.26823 7.43848 7.95001C7.43848 8.13943 7.36599 8.32166 7.23588 8.45933L4.37338 11.4881C3.9943 11.8892 4.01183 12.5215 4.41254 12.901L7.19317 15.5344C7.34977 15.6827 7.43848 15.8888 7.43848 16.1045Z" fill="#6F7585"/>
<path d="M17.4385 16.1045C17.4385 16.8041 18.2842 17.1544 18.7789 16.6598L22.1455 13.2939C22.3331 13.1064 22.4385 12.852 22.4385 12.5867V12.0042C22.4385 11.7592 22.3486 11.5228 22.1858 11.3398L18.7341 7.45734C18.2811 6.94782 17.4385 7.26823 17.4385 7.95001C17.4385 8.13943 17.511 8.32166 17.6411 8.45933L20.5036 11.4881C20.8827 11.8892 20.8651 12.5215 20.4644 12.901L17.6838 15.5344C17.5272 15.6827 17.4385 15.8888 17.4385 16.1045Z" fill="#6F7585"/>
<path d="M15.1746 3.86719C15.872 3.86719 16.3552 4.56303 16.1116 5.21648L10.4705 20.3493C10.3246 20.7406 9.951 21 9.53345 21H9.08976C8.39239 21 7.90916 20.3042 8.15275 19.6507L13.7939 4.51789C13.9398 4.12663 14.3134 3.86719 14.7309 3.86719H15.1746Z" fill="#6F7585"/>
</svg>
