<svg width="25" height="24" viewBox="0 0 25 24" fill="none" xmlns="http://www.w3.org/2000/svg">
<path fill-rule="evenodd" clip-rule="evenodd" d="M7.68848 6C7.68848 5.58579 8.02426 5.25 8.43848 5.25H13.4385C13.8527 5.25 14.1885 5.58579 14.1885 6C14.1885 6.41421 13.8527 6.75 13.4385 6.75H8.43848C8.02426 6.75 7.68848 6.41421 7.68848 6Z" fill="#6F7585"/>
<path fill-rule="evenodd" clip-rule="evenodd" d="M7.68848 10C7.68848 9.58579 8.02426 9.25 8.43848 9.25H13.4385C13.8527 9.25 14.1885 9.58579 14.1885 10C14.1885 10.4142 13.8527 10.75 13.4385 10.75H8.43848C8.02426 10.75 7.68848 10.4142 7.68848 10Z" fill="#6F7585"/>
<path fill-rule="evenodd" clip-rule="evenodd" d="M7.68848 14C7.68848 13.5858 8.02426 13.25 8.43848 13.25H18.4385C18.8527 13.25 19.1885 13.5858 19.1885 14C19.1885 14.4142 18.8527 14.75 18.4385 14.75H8.43848C8.02426 14.75 7.68848 14.4142 7.68848 14Z" fill="#6F7585"/>
<path fill-rule="evenodd" clip-rule="evenodd" d="M7.68848 18C7.68848 17.5858 8.02426 17.25 8.43848 17.25H18.4385C18.8527 17.25 19.1885 17.5858 19.1885 18C19.1885 18.4142 18.8527 18.75 18.4385 18.75H8.43848C8.02426 18.75 7.68848 18.4142 7.68848 18Z" fill="#6F7585"/>
<path d="M7.43848 22.1773C7.43848 22.63 7.0667 23.0047 6.61963 22.9332C6.18772 22.864 5.7971 22.7411 5.44778 22.5645C4.89584 22.2901 4.47103 21.8747 4.17336 21.3181C3.88189 20.7616 3.73615 20.0639 3.73615 19.2252V15.6272C3.73615 15.0707 3.64933 14.6239 3.47569 14.2868C3.30204 13.9419 3.04468 13.691 2.70359 13.5343C2.56563 13.4709 2.41448 13.4203 2.25013 13.3825C1.81003 13.2814 1.43848 12.933 1.43848 12.4815C1.43848 12.0349 1.80148 11.6869 2.23749 11.5903C2.40673 11.5528 2.5621 11.5031 2.70359 11.4413C3.04468 11.2846 3.30204 11.0376 3.47569 10.7006C3.64933 10.3635 3.73615 9.91669 3.73615 9.36014V5.73864C3.73615 4.89989 3.89119 4.20616 4.20127 3.65745C4.51134 3.1009 4.94235 2.68545 5.49429 2.41109C5.83817 2.24206 6.21618 2.1251 6.62832 2.06021C7.07197 1.99035 7.43848 2.36364 7.43848 2.81276C7.43848 3.25108 7.08444 3.59298 6.66284 3.71288C6.51806 3.75406 6.38281 3.80613 6.25708 3.8691C5.9346 4.03371 5.68654 4.28455 5.5129 4.62162C5.34545 4.95868 5.26173 5.39373 5.26173 5.92677V9.46596C5.26173 10.2812 5.09739 10.9357 4.76871 11.4296C4.45106 11.9068 3.96834 12.2267 3.32054 12.3891C3.28079 12.3991 3.25243 12.4345 3.25243 12.4755C3.25243 12.517 3.28145 12.5527 3.32181 12.5622C3.98096 12.7173 4.46637 13.0335 4.77801 13.5108C5.10049 14.0046 5.26173 14.663 5.26173 15.4861V19.0959C5.26173 19.6289 5.34545 20.06 5.5129 20.3893C5.68034 20.7263 5.9253 20.9732 6.24778 21.13C6.37112 21.1888 6.50406 21.2372 6.64661 21.275C7.07591 21.3891 7.43848 21.7331 7.43848 22.1773Z" fill="#6F7585"/>
<path d="M18.4385 22.1773C18.4385 22.63 18.8102 23.0047 19.2573 22.9332C19.6892 22.864 20.0799 22.7411 20.4292 22.5645C20.9811 22.2901 21.4059 21.8747 21.7036 21.3181C21.9951 20.7616 22.1408 20.0639 22.1408 19.2252V15.6272C22.1408 15.0707 22.2276 14.6239 22.4013 14.2868C22.5749 13.9419 22.8323 13.691 23.1734 13.5343C23.3113 13.4709 23.4625 13.4203 23.6268 13.3825C24.0669 13.2814 24.4385 12.933 24.4385 12.4815C24.4385 12.0349 24.0755 11.6869 23.6395 11.5903C23.4702 11.5528 23.3149 11.5031 23.1734 11.4413C22.8323 11.2846 22.5749 11.0376 22.4013 10.7006C22.2276 10.3635 22.1408 9.91669 22.1408 9.36014V5.73864C22.1408 4.89989 21.9858 4.20616 21.6757 3.65745C21.3656 3.1009 20.9346 2.68545 20.3827 2.41109C20.0388 2.24206 19.6608 2.1251 19.2486 2.06021C18.805 1.99035 18.4385 2.36364 18.4385 2.81276C18.4385 3.25108 18.7925 3.59298 19.2141 3.71288C19.3589 3.75406 19.4941 3.80613 19.6199 3.8691C19.9424 4.03371 20.1904 4.28455 20.3641 4.62162C20.5315 4.95868 20.6152 5.39373 20.6152 5.92677V9.46596C20.6152 10.2812 20.7796 10.9357 21.1082 11.4296C21.4259 11.9068 21.9086 12.2267 22.5564 12.3891C22.5962 12.3991 22.6245 12.4345 22.6245 12.4755C22.6245 12.517 22.5955 12.5527 22.5551 12.5622C21.896 12.7173 21.4106 13.0335 21.0989 13.5108C20.7765 14.0046 20.6152 14.663 20.6152 15.4861V19.0959C20.6152 19.6289 20.5315 20.06 20.3641 20.3893C20.1966 20.7263 19.9517 20.9732 19.6292 21.13C19.5058 21.1888 19.3729 21.2372 19.2303 21.275C18.801 21.3891 18.4385 21.7331 18.4385 22.1773Z" fill="#6F7585"/>
</svg>
