<svg width="25" height="24" viewBox="0 0 25 24" fill="none" xmlns="http://www.w3.org/2000/svg">
<path fill-rule="evenodd" clip-rule="evenodd" d="M2.68848 4.5C2.68848 4.08579 3.02426 3.75 3.43848 3.75H21.4385C21.8527 3.75 22.1885 4.08579 22.1885 4.5C22.1885 4.91421 21.8527 5.25 21.4385 5.25H3.43848C3.02426 5.25 2.68848 4.91421 2.68848 4.5Z" fill="#6F7585"/>
<path fill-rule="evenodd" clip-rule="evenodd" d="M6.94824 9.5C6.94824 9.08579 7.28403 8.75 7.69824 8.75H17.1782C17.5925 8.75 17.9282 9.08579 17.9282 9.5C17.9282 9.91421 17.5925 10.25 17.1782 10.25H7.69824C7.28403 10.25 6.94824 9.91421 6.94824 9.5Z" fill="#6F7585"/>
<path fill-rule="evenodd" clip-rule="evenodd" d="M2.68848 14.5C2.68848 14.0858 3.02426 13.75 3.43848 13.75H21.4385C21.8527 13.75 22.1885 14.0858 22.1885 14.5C22.1885 14.9142 21.8527 15.25 21.4385 15.25H3.43848C3.02426 15.25 2.68848 14.9142 2.68848 14.5Z" fill="#6F7585"/>
<path fill-rule="evenodd" clip-rule="evenodd" d="M6.94824 19.5C6.94824 19.0858 7.28403 18.75 7.69824 18.75H17.1782C17.5925 18.75 17.9282 19.0858 17.9282 19.5C17.9282 19.9142 17.5925 20.25 17.1782 20.25H7.69824C7.28403 20.25 6.94824 19.9142 6.94824 19.5Z" fill="#6F7585"/>
</svg>
