<svg width="25" height="24" viewBox="0 0 25 24" fill="none" xmlns="http://www.w3.org/2000/svg">
<path fill-rule="evenodd" clip-rule="evenodd" d="M4.68848 21C4.68848 20.5858 5.02426 20.25 5.43848 20.25H19.4385C19.8527 20.25 20.1885 20.5858 20.1885 21C20.1885 21.4142 19.8527 21.75 19.4385 21.75H5.43848C5.02426 21.75 4.68848 21.4142 4.68848 21Z" fill="#6F7585"/>
<path fill-rule="evenodd" clip-rule="evenodd" d="M5.43848 2.25C5.85269 2.25 6.18848 2.58579 6.18848 3V10C6.18848 13.4558 8.98269 16.25 12.4385 16.25C15.8943 16.25 18.6885 13.4558 18.6885 10V3C18.6885 2.58579 19.0243 2.25 19.4385 2.25C19.8527 2.25 20.1885 2.58579 20.1885 3V10C20.1885 14.2842 16.7227 17.75 12.4385 17.75C8.15426 17.75 4.68848 14.2842 4.68848 10V3C4.68848 2.58579 5.02426 2.25 5.43848 2.25Z" fill="#6F7585"/>
</svg>
