<svg width="25" height="24" viewBox="0 0 25 24" fill="none" xmlns="http://www.w3.org/2000/svg">
<path fill-rule="evenodd" clip-rule="evenodd" d="M0.688476 11C0.688477 10.5858 1.02426 10.25 1.43848 10.25L23.4385 10.25C23.8527 10.25 24.1885 10.5858 24.1885 11C24.1885 11.4142 23.8527 11.75 23.4385 11.75L1.43848 11.75C1.02426 11.75 0.688476 11.4142 0.688476 11Z" fill="#6F7585"/>
<path fill-rule="evenodd" clip-rule="evenodd" d="M5.43848 4.25C5.85269 4.25 6.18848 4.58579 6.18848 5V12C6.18848 15.4558 8.98269 18.25 12.4385 18.25C15.8943 18.25 18.6885 15.4558 18.6885 12V5C18.6885 4.58579 19.0243 4.25 19.4385 4.25C19.8527 4.25 20.1885 4.58579 20.1885 5V12C20.1885 16.2842 16.7227 19.75 12.4385 19.75C8.15426 19.75 4.68848 16.2842 4.68848 12V5C4.68848 4.58579 5.02426 4.25 5.43848 4.25Z" fill="#6F7585"/>
</svg>
