<svg width="25" height="24" viewBox="0 0 25 24" fill="none" xmlns="http://www.w3.org/2000/svg">
<path fill-rule="evenodd" clip-rule="evenodd" d="M2.68848 4.5C2.68848 4.08579 3.02426 3.75 3.43848 3.75H21.4385C21.8527 3.75 22.1885 4.08579 22.1885 4.5C22.1885 4.91421 21.8527 5.25 21.4385 5.25H3.43848C3.02426 5.25 2.68848 4.91421 2.68848 4.5Z" fill="#6F7585"/>
<path fill-rule="evenodd" clip-rule="evenodd" d="M2.68848 9.5C2.68848 9.08579 3.02426 8.75 3.43848 8.75H12.9085C13.3227 8.75 13.6585 9.08579 13.6585 9.5C13.6585 9.91421 13.3227 10.25 12.9085 10.25H3.43848C3.02426 10.25 2.68848 9.91421 2.68848 9.5Z" fill="#6F7585"/>
<path fill-rule="evenodd" clip-rule="evenodd" d="M2.68848 14.5C2.68848 14.0858 3.02426 13.75 3.43848 13.75H21.4385C21.8527 13.75 22.1885 14.0858 22.1885 14.5C22.1885 14.9142 21.8527 15.25 21.4385 15.25H3.43848C3.02426 15.25 2.68848 14.9142 2.68848 14.5Z" fill="#6F7585"/>
<path fill-rule="evenodd" clip-rule="evenodd" d="M2.68848 19.5C2.68848 19.0858 3.02426 18.75 3.43848 18.75H12.9085C13.3227 18.75 13.6585 19.0858 13.6585 19.5C13.6585 19.9142 13.3227 20.25 12.9085 20.25H3.43848C3.02426 20.25 2.68848 19.9142 2.68848 19.5Z" fill="#6F7585"/>
</svg>
