<svg width="25" height="24" viewBox="0 0 25 24" fill="none" xmlns="http://www.w3.org/2000/svg">
<path fill-rule="evenodd" clip-rule="evenodd" d="M9.30859 3C9.30859 2.58579 9.64438 2.25 10.0586 2.25H19.3086C19.7228 2.25 20.0586 2.58579 20.0586 3C20.0586 3.41421 19.7228 3.75 19.3086 3.75H10.0586C9.64438 3.75 9.30859 3.41421 9.30859 3Z" fill="#6F7585"/>
<path fill-rule="evenodd" clip-rule="evenodd" d="M4.80859 21C4.80859 20.5858 5.14438 20.25 5.55859 20.25H14.8086C15.2228 20.25 15.5586 20.5858 15.5586 21C15.5586 21.4142 15.2228 21.75 14.8086 21.75H5.55859C5.14438 21.75 4.80859 21.4142 4.80859 21Z" fill="#6F7585"/>
<path fill-rule="evenodd" clip-rule="evenodd" d="M14.8706 2.27257C15.2724 2.37303 15.5167 2.78023 15.4163 3.18208L10.9163 21.1821C10.8158 21.5839 10.4086 21.8282 10.0068 21.7278C9.60491 21.6273 9.36059 21.2201 9.46105 20.8183L13.961 2.81828C14.0615 2.41643 14.4687 2.17211 14.8706 2.27257Z" fill="#6F7585"/>
</svg>
