<svg width="25" height="24" viewBox="0 0 25 24" fill="none" xmlns="http://www.w3.org/2000/svg">
<path d="M13.8484 12.0002L18.1484 7.71019C18.3367 7.52188 18.4425 7.26649 18.4425 7.00019C18.4425 6.73388 18.3367 6.47849 18.1484 6.29019C17.9601 6.10188 17.7047 5.99609 17.4384 5.99609C17.1721 5.99609 16.9167 6.10188 16.7284 6.29019L12.4384 10.5902L8.14842 6.29019C7.96011 6.10188 7.70472 5.99609 7.43842 5.99609C7.17211 5.99609 6.91672 6.10188 6.72842 6.29019C6.54011 6.47849 6.43432 6.73388 6.43432 7.00019C6.43432 7.26649 6.54011 7.52188 6.72842 7.71019L11.0284 12.0002L6.72842 16.2902C6.63469 16.3831 6.56029 16.4937 6.50952 16.6156C6.45876 16.7375 6.43262 16.8682 6.43262 17.0002C6.43262 17.1322 6.45876 17.2629 6.50952 17.3848C6.56029 17.5066 6.63469 17.6172 6.72842 17.7102C6.82138 17.8039 6.93198 17.8783 7.05384 17.9291C7.1757 17.9798 7.3064 18.006 7.43842 18.006C7.57043 18.006 7.70113 17.9798 7.82299 17.9291C7.94485 17.8783 8.05545 17.8039 8.14842 17.7102L12.4384 13.4102L16.7284 17.7102C16.8214 17.8039 16.932 17.8783 17.0538 17.9291C17.1757 17.9798 17.3064 18.006 17.4384 18.006C17.5704 18.006 17.7011 17.9798 17.823 17.9291C17.9449 17.8783 18.0555 17.8039 18.1484 17.7102C18.2421 17.6172 18.3165 17.5066 18.3673 17.3848C18.4181 17.2629 18.4442 17.1322 18.4442 17.0002C18.4442 16.8682 18.4181 16.7375 18.3673 16.6156C18.3165 16.4937 18.2421 16.3831 18.1484 16.2902L13.8484 12.0002Z" fill="#6F7585"/>
</svg>
