<svg width="25" height="24" viewBox="0 0 25 24" fill="none" xmlns="http://www.w3.org/2000/svg">
<path fill-rule="evenodd" clip-rule="evenodd" d="M15.9561 1.43775C17.1228 1.28855 18.3032 1.76567 19.5026 2.89422L19.504 2.89552C20.7075 4.03361 21.2553 5.1881 21.1731 6.36399C21.0937 7.50024 20.435 8.46195 19.6839 9.2555M19.6839 9.2555L11.4779 17.9412C11.2466 18.1931 10.9351 18.4065 10.6398 18.5643C10.3407 18.7243 9.99476 18.8611 9.66997 18.9189L9.66497 18.9197L6.44612 19.4695C5.66556 19.6041 4.91706 19.409 4.38386 18.9034C3.8514 18.3984 3.61612 17.6621 3.70328 16.8776L3.70354 16.8753L4.07514 13.6213C4.1183 13.2976 4.23851 12.9473 4.38022 12.6435C4.52142 12.3407 4.71407 12.0196 4.94206 11.7769L4.94352 11.7754L13.1535 3.08538C13.9051 2.2915 14.8286 1.58192 15.9561 1.43775M14.2433 4.11605C14.2432 4.11618 14.2435 4.11591 14.2433 4.11605L6.03533 12.8039C6.03516 12.8041 6.0355 12.8038 6.03533 12.8039C5.95336 12.8914 5.84075 13.0607 5.73966 13.2774C5.6404 13.4903 5.58079 13.6872 5.56291 13.8138L5.19411 17.0433C5.19407 17.0436 5.19403 17.0439 5.19399 17.0443C5.15148 17.4292 5.27111 17.6776 5.41603 17.815C5.56033 17.9518 5.81183 18.0568 6.19126 17.9913L6.19242 17.9911L9.40953 17.4416C9.5348 17.419 9.72782 17.351 9.93257 17.2415C10.1402 17.1306 10.2963 17.0109 10.3745 16.9251L10.3834 16.9153L18.5935 8.22538C19.2622 7.51904 19.6337 6.87538 19.6768 6.25939C19.7171 5.68293 19.4801 4.93767 18.4742 3.98613C17.4739 3.04514 16.7195 2.85234 16.1463 2.92563C15.5339 3.00394 14.9117 3.41017 14.2433 4.11605Z" fill="#6F7585"/>
<path fill-rule="evenodd" clip-rule="evenodd" d="M12.2128 4.30983C12.6221 4.24606 13.0055 4.52616 13.0693 4.93543C13.4464 7.35605 15.4109 9.20866 17.8534 9.45466C18.2655 9.49617 18.566 9.86392 18.5245 10.276C18.4829 10.6882 18.1152 10.9886 17.7031 10.9471C14.5855 10.6331 12.07 8.26572 11.5872 5.16634C11.5234 4.75707 11.8035 4.37359 12.2128 4.30983Z" fill="#6F7585"/>
<path fill-rule="evenodd" clip-rule="evenodd" d="M2.68848 22C2.68848 21.5858 3.02426 21.25 3.43848 21.25H21.4385C21.8527 21.25 22.1885 21.5858 22.1885 22C22.1885 22.4142 21.8527 22.75 21.4385 22.75H3.43848C3.02426 22.75 2.68848 22.4142 2.68848 22Z" fill="#6F7585"/>
</svg>
