<svg width="25" height="24" viewBox="0 0 25 24" fill="none" xmlns="http://www.w3.org/2000/svg">
<path fill-rule="evenodd" clip-rule="evenodd" d="M12.4384 9.16992C10.8726 9.16992 9.6084 10.4341 9.6084 11.9999C9.6084 12.5103 9.74233 12.9864 9.97869 13.399L13.8374 9.54021C13.4249 9.30385 12.9488 9.16992 12.4384 9.16992ZM8.1084 11.9999C8.1084 9.60571 10.0442 7.66992 12.4384 7.66992C13.6362 7.66992 14.7145 8.15536 15.4987 8.93959C15.7916 9.23249 15.7916 9.70736 15.4987 10.0003L10.4387 15.0603C10.1458 15.3531 9.67096 15.3531 9.37807 15.0603C8.59384 14.276 8.1084 13.1977 8.1084 11.9999Z" fill="#6F7585"/>
<path fill-rule="evenodd" clip-rule="evenodd" d="M2.69581 9.00743C5.08673 5.24907 8.59034 2.98047 12.4383 2.98047C14.6879 2.98047 16.8438 3.76408 18.71 5.1717C19.0406 5.42114 19.1065 5.89142 18.8571 6.22211C18.6077 6.5528 18.1374 6.61867 17.8067 6.36923C16.1728 5.13686 14.3287 4.48047 12.4383 4.48047C9.22647 4.48047 6.15021 6.37167 3.96114 9.81301L3.96051 9.814C3.60593 10.3695 3.40332 11.1647 3.40332 12.0055C3.40332 12.8462 3.60593 13.6414 3.96051 14.1969L3.96086 14.1975C4.71463 15.3806 5.58743 16.3935 6.52735 17.2018C6.8414 17.4719 6.87704 17.9454 6.60696 18.2595C6.33688 18.5735 5.86334 18.6092 5.54929 18.3391C4.48921 17.4274 3.52201 16.3003 2.69578 15.0035C2.15061 14.1491 1.90332 13.0545 1.90332 12.0055C1.90332 10.9564 2.15062 9.86185 2.69581 9.00743Z" fill="#6F7585"/>
<path fill-rule="evenodd" clip-rule="evenodd" d="M20.0185 7.3453C20.3413 7.08569 20.8134 7.13688 21.073 7.45964C21.4569 7.93691 21.834 8.44977 22.1818 8.99785C22.7265 9.85209 22.9736 10.9461 22.9736 11.9947C22.9736 13.0438 22.7263 14.1383 22.1811 14.9927C19.7902 18.7511 16.2866 21.0197 12.4386 21.0197C11.1021 21.0197 9.79342 20.7371 8.56755 20.2209C8.1858 20.0602 8.00663 19.6204 8.16737 19.2387C8.3281 18.8569 8.76788 18.6777 9.14964 18.8385C10.2038 19.2823 11.3151 19.5197 12.4386 19.5197C15.6504 19.5197 18.7267 17.6285 20.9158 14.1872L20.9164 14.1862C21.271 13.6307 21.4736 12.8355 21.4736 11.9947C21.4736 11.154 21.271 10.3588 20.9164 9.80324L20.9153 9.80158C20.6032 9.30966 20.2603 8.84252 19.9042 8.39978C19.6446 8.07702 19.6958 7.60492 20.0185 7.3453Z" fill="#6F7585"/>
<path fill-rule="evenodd" clip-rule="evenodd" d="M16.0841 11.9628C16.4914 12.0379 16.7607 12.429 16.6856 12.8363C16.3692 14.5522 14.9799 15.9415 13.2641 16.2579C12.8567 16.333 12.4656 16.0637 12.3905 15.6563C12.3154 15.249 12.5847 14.8579 12.9921 14.7828C14.0962 14.5792 15.0069 13.6685 15.2105 12.5643C15.2856 12.157 15.6767 11.8876 16.0841 11.9628Z" fill="#6F7585"/>
<path fill-rule="evenodd" clip-rule="evenodd" d="M10.4388 13.9999C10.7317 14.2928 10.7317 14.7677 10.4388 15.0606L2.96881 22.5306C2.67591 22.8235 2.20104 22.8235 1.90815 22.5306C1.61525 22.2377 1.61525 21.7628 1.90815 21.4699L9.37815 13.9999C9.67104 13.7071 10.1459 13.7071 10.4388 13.9999Z" fill="#6F7585"/>
<path fill-rule="evenodd" clip-rule="evenodd" d="M22.9691 1.46967C23.262 1.76256 23.262 2.23744 22.9691 2.53033L15.4991 10.0003C15.2062 10.2932 14.7313 10.2932 14.4384 10.0003C14.1455 9.70744 14.1455 9.23256 14.4384 8.93967L21.9084 1.46967C22.2013 1.17678 22.6762 1.17678 22.9691 1.46967Z" fill="#6F7585"/>
</svg>
