<svg width="25" height="24" viewBox="0 0 25 24" fill="none" xmlns="http://www.w3.org/2000/svg">
<path fill-rule="evenodd" clip-rule="evenodd" d="M12.4384 9.16992C10.8726 9.16992 9.6084 10.4341 9.6084 11.9999C9.6084 13.5657 10.8726 14.8299 12.4384 14.8299C14.0042 14.8299 15.2684 13.5657 15.2684 11.9999C15.2684 10.4341 14.0042 9.16992 12.4384 9.16992ZM8.1084 11.9999C8.1084 9.60571 10.0442 7.66992 12.4384 7.66992C14.8326 7.66992 16.7684 9.60571 16.7684 11.9999C16.7684 14.3941 14.8326 16.3299 12.4384 16.3299C10.0442 16.3299 8.1084 14.3941 8.1084 11.9999Z" fill="#6F7585"/>
<path fill-rule="evenodd" clip-rule="evenodd" d="M2.69581 8.99669C5.08673 5.23833 8.59034 2.96973 12.4383 2.96973C16.2865 2.96973 19.7902 5.23852 22.1811 8.99718C22.7261 9.85152 22.9733 10.9459 22.9733 11.9947C22.9733 13.0436 22.7261 14.1379 22.1811 14.9923C19.7902 18.7509 16.2865 21.0197 12.4383 21.0197C8.59017 21.0197 5.08643 18.7509 2.6955 14.9923C2.15052 14.1379 1.90332 13.0436 1.90332 11.9947C1.90332 10.9457 2.15062 9.8511 2.69581 8.99669ZM12.4383 4.46973C9.22647 4.46973 6.15021 6.36093 3.96114 9.80227L3.96051 9.80325C3.60593 10.3588 3.40332 11.154 3.40332 11.9947C3.40332 12.8355 3.60593 13.6307 3.96051 14.1862L3.96114 14.1872C6.15021 17.6285 9.22647 19.5197 12.4383 19.5197C15.6502 19.5197 18.7264 17.6285 20.9155 14.1872L20.9161 14.1862C21.2707 13.6307 21.4733 12.8355 21.4733 11.9947C21.4733 11.154 21.2707 10.3588 20.9161 9.80325L20.9155 9.80227C18.7264 6.36093 15.6502 4.46973 12.4383 4.46973Z" fill="#6F7585"/>
</svg>
