<svg width="25" height="24" viewBox="0 0 25 24" fill="none" xmlns="http://www.w3.org/2000/svg">
<path d="M12.4385 22C17.9385 22 22.4385 17.5 22.4385 12C22.4385 6.5 17.9385 2 12.4385 2C6.93848 2 2.43848 6.5 2.43848 12C2.43848 17.5 6.93848 22 12.4385 22Z" fill="#C03221"/>
<path fill-rule="evenodd" clip-rule="evenodd" d="M12.4385 7.25C12.8527 7.25 13.1885 7.58579 13.1885 8V13C13.1885 13.4142 12.8527 13.75 12.4385 13.75C12.0243 13.75 11.6885 13.4142 11.6885 13V8C11.6885 7.58579 12.0243 7.25 12.4385 7.25Z" fill="white"/>
<path fill-rule="evenodd" clip-rule="evenodd" d="M11.4326 16C11.4326 15.4477 11.8803 15 12.4326 15H12.4416C12.9939 15 13.4416 15.4477 13.4416 16C13.4416 16.5523 12.9939 17 12.4416 17H12.4326C11.8803 17 11.4326 16.5523 11.4326 16Z" fill="white"/>
</svg>
