<svg width="25" height="24" viewBox="0 0 25 24" fill="none" xmlns="http://www.w3.org/2000/svg">
<path fill-rule="evenodd" clip-rule="evenodd" d="M2.43848 19.5C2.43848 18.6716 3.02245 18 3.74282 18H21.1341C21.8545 18 22.4385 18.6716 22.4385 19.5C22.4385 20.3284 21.8545 21 21.1341 21H3.74282C3.02245 21 2.43848 20.3284 2.43848 19.5Z" fill="#6F7585"/>
<path fill-rule="evenodd" clip-rule="evenodd" d="M2.43848 12.5C2.43848 11.6716 3.02245 11 3.74282 11H21.1341C21.8545 11 22.4385 11.6716 22.4385 12.5C22.4385 13.3284 21.8545 14 21.1341 14H3.74282C3.02245 14 2.43848 13.3284 2.43848 12.5Z" fill="#6F7585"/>
<path fill-rule="evenodd" clip-rule="evenodd" d="M2.43848 5.5C2.43848 4.67157 3.02245 4 3.74282 4H21.1341C21.8545 4 22.4385 4.67157 22.4385 5.5C22.4385 6.32843 21.8545 7 21.1341 7H3.74282C3.02245 7 2.43848 6.32843 2.43848 5.5Z" fill="#6F7585"/>
</svg>
