<svg width="25" height="24" viewBox="0 0 25 24" fill="none" xmlns="http://www.w3.org/2000/svg">
<path d="M13.6285 6H7.22848C6.96848 6 6.71848 6.01 6.47848 6.04C3.78848 6.27 2.43848 7.86 2.43848 10.79V14.79C2.43848 18.79 4.03848 19.58 7.22848 19.58H7.62848C7.84848 19.58 8.13848 19.73 8.26848 19.9L9.46848 21.5C9.99848 22.21 10.8585 22.21 11.3885 21.5L12.5885 19.9C12.7385 19.7 12.9785 19.58 13.2285 19.58H13.6285C16.5585 19.58 18.1485 18.24 18.3785 15.54C18.4085 15.3 18.4185 15.05 18.4185 14.79V10.79C18.4185 7.6 16.8185 6 13.6285 6ZM6.93848 14C6.37848 14 5.93848 13.55 5.93848 13C5.93848 12.45 6.38848 12 6.93848 12C7.48848 12 7.93848 12.45 7.93848 13C7.93848 13.55 7.48848 14 6.93848 14ZM10.4285 14C9.86848 14 9.42848 13.55 9.42848 13C9.42848 12.45 9.87848 12 10.4285 12C10.9785 12 11.4285 12.45 11.4285 13C11.4285 13.55 10.9885 14 10.4285 14ZM13.9285 14C13.3685 14 12.9285 13.55 12.9285 13C12.9285 12.45 13.3785 12 13.9285 12C14.4785 12 14.9285 12.45 14.9285 13C14.9285 13.55 14.4785 14 13.9285 14Z" fill="#6F7585"/>
<path d="M22.4187 6.79V10.79C22.4187 12.79 21.7987 14.15 20.5587 14.9C20.2587 15.08 19.9087 14.84 19.9087 14.49L19.9187 10.79C19.9187 6.79 17.6287 4.5 13.6287 4.5L7.53872 4.51C7.18872 4.51 6.94872 4.16 7.12872 3.86C7.87872 2.62 9.23872 2 11.2287 2H17.6287C20.8187 2 22.4187 3.6 22.4187 6.79Z" fill="#6F7585"/>
</svg>
