<svg width="25" height="24" viewBox="0 0 25 24" fill="none" xmlns="http://www.w3.org/2000/svg">
<path d="M9.43848 2C6.81848 2 4.68848 4.13 4.68848 6.75C4.68848 9.32 6.69848 11.4 9.31848 11.49C9.39848 11.48 9.47848 11.48 9.53848 11.49C9.55848 11.49 9.56848 11.49 9.58848 11.49C9.59848 11.49 9.59848 11.49 9.60848 11.49C12.1685 11.4 14.1785 9.32 14.1885 6.75C14.1885 4.13 12.0585 2 9.43848 2Z" fill="#6F7585"/>
<path d="M14.5184 14.1499C11.7284 12.2899 7.17844 12.2899 4.36844 14.1499C3.09844 14.9999 2.39844 16.1499 2.39844 17.3799C2.39844 18.6099 3.09844 19.7499 4.35844 20.5899C5.75844 21.5299 7.59844 21.9999 9.43844 21.9999C11.2784 21.9999 13.1184 21.5299 14.5184 20.5899C15.7784 19.7399 16.4784 18.5999 16.4784 17.3599C16.4684 16.1299 15.7784 14.9899 14.5184 14.1499Z" fill="#6F7585"/>
<path d="M20.4288 7.3401C20.5888 9.2801 19.2088 10.9801 17.2988 11.2101C17.2888 11.2101 17.2888 11.2101 17.2788 11.2101H17.2488C17.1888 11.2101 17.1288 11.2101 17.0788 11.2301C16.1088 11.2801 15.2188 10.9701 14.5488 10.4001C15.5788 9.4801 16.1688 8.1001 16.0488 6.6001C15.9788 5.7901 15.6988 5.0501 15.2788 4.4201C15.6588 4.2301 16.0988 4.1101 16.5488 4.0701C18.5088 3.9001 20.2588 5.3601 20.4288 7.3401Z" fill="#6F7585"/>
<path d="M22.4287 16.5904C22.3487 17.5604 21.7287 18.4004 20.6887 18.9704C19.6887 19.5204 18.4287 19.7804 17.1787 19.7504C17.8987 19.1004 18.3187 18.2904 18.3987 17.4304C18.4987 16.1904 17.9087 15.0004 16.7287 14.0504C16.0587 13.5204 15.2787 13.1004 14.4287 12.7904C16.6387 12.1504 19.4187 12.5804 21.1287 13.9604C22.0487 14.7004 22.5187 15.6304 22.4287 16.5904Z" fill="#6F7585"/>
</svg>
