<svg width="25" height="24" viewBox="0 0 25 24" fill="none" xmlns="http://www.w3.org/2000/svg">
<path fill-rule="evenodd" clip-rule="evenodd" d="M4.59381 4.15533C3.67828 5.07086 3.18848 6.57397 3.18848 9V15C3.18848 17.426 3.67828 18.9291 4.59381 19.8447C5.50934 20.7602 7.01245 21.25 9.43848 21.25H15.4385C17.8645 21.25 19.3676 20.7602 20.2831 19.8447C21.1987 18.9291 21.6885 17.426 21.6885 15V10C21.6885 9.58579 22.0243 9.25 22.4385 9.25C22.8527 9.25 23.1885 9.58579 23.1885 10V15C23.1885 17.574 22.6783 19.5709 21.3438 20.9053C20.0093 22.2398 18.0124 22.75 15.4385 22.75H9.43848C6.8645 22.75 4.86762 22.2398 3.53315 20.9053C2.19868 19.5709 1.68848 17.574 1.68848 15V9C1.68848 6.42603 2.19868 4.42914 3.53315 3.09467C4.86762 1.7602 6.8645 1.25 9.43848 1.25H14.4385C14.8527 1.25 15.1885 1.58579 15.1885 2C15.1885 2.41421 14.8527 2.75 14.4385 2.75H9.43848C7.01245 2.75 5.50934 3.2398 4.59381 4.15533Z" fill="#6F7585"/>
<path fill-rule="evenodd" clip-rule="evenodd" d="M14.1515 1.30711C14.4317 1.19103 14.7543 1.25519 14.9688 1.46969L22.9688 9.46969C23.1833 9.68419 23.2475 10.0068 23.1314 10.287C23.0153 10.5673 22.7418 10.75 22.4385 10.75H18.4385C16.8969 10.75 15.6306 10.5028 14.7831 9.65535C13.9357 8.80793 13.6885 7.54157 13.6885 6.00002V2.00002C13.6885 1.69668 13.8712 1.4232 14.1515 1.30711ZM15.1885 3.81068V6.00002C15.1885 7.45847 15.4412 8.19211 15.8438 8.59469C16.2464 8.99727 16.98 9.25002 18.4385 9.25002H20.6278L15.1885 3.81068Z" fill="#6F7585"/>
<path fill-rule="evenodd" clip-rule="evenodd" d="M13.4688 12.4697C13.7617 12.7626 13.7617 13.2374 13.4688 13.5303L9.46881 17.5303C9.32815 17.671 9.13739 17.75 8.93848 17.75C8.73956 17.75 8.5488 17.671 8.40815 17.5303L6.90815 16.0303C6.61525 15.7374 6.61525 15.2626 6.90815 14.9697C7.20104 14.6768 7.67591 14.6768 7.96881 14.9697L8.93848 15.9393L12.4081 12.4697C12.701 12.1768 13.1759 12.1768 13.4688 12.4697Z" fill="#6F7585"/>
</svg>
