<svg width="25" height="24" viewBox="0 0 25 24" fill="none" xmlns="http://www.w3.org/2000/svg">
<path fill-rule="evenodd" clip-rule="evenodd" d="M5.40426 5.03415C7.40881 4.83171 9.4136 4.73047 11.4185 4.73047C14.7839 4.73047 18.1586 4.90176 21.5125 5.23412C21.9247 5.27497 22.2257 5.64224 22.1849 6.05443C22.144 6.46663 21.7768 6.76766 21.3646 6.72681C18.0585 6.39918 14.7332 6.23047 11.4185 6.23047C9.46383 6.23047 7.50899 6.32919 5.55391 6.52667L5.55171 6.52689L3.51171 6.72689C3.09947 6.76731 2.73252 6.46588 2.69211 6.05365C2.65169 5.64141 2.95312 5.27446 3.36535 5.23405L5.40426 5.03415Z" fill="#6F7585"/>
<path fill-rule="evenodd" clip-rule="evenodd" d="M9.89818 3.78456L9.67824 5.09421C9.60963 5.50271 9.22287 5.77824 8.81438 5.70964C8.40589 5.64104 8.13035 5.25428 8.19895 4.84578L8.41895 3.53579C8.4228 3.51297 8.42675 3.48908 8.43076 3.46487C8.49962 3.04899 8.60063 2.43887 9.00733 1.97769C9.48139 1.44012 10.2047 1.25 11.1286 1.25H13.7486C14.6837 1.25 15.4063 1.4554 15.8776 1.99845C16.2848 2.46776 16.3833 3.08006 16.4491 3.48891C16.4523 3.5088 16.4554 3.52822 16.4585 3.54711L16.6781 4.84486C16.7472 5.25326 16.4721 5.64037 16.0637 5.70949C15.6553 5.7786 15.2682 5.50355 15.1991 5.09514L14.9784 3.79069C14.8947 3.27767 14.8418 3.09352 14.7446 2.98155C14.6909 2.9196 14.5035 2.75 13.7486 2.75H11.1286C10.3625 2.75 10.1808 2.91488 10.1324 2.96981C10.0402 3.07427 9.98826 3.24976 9.89818 3.78456Z" fill="#6F7585"/>
<path fill-rule="evenodd" clip-rule="evenodd" d="M19.3372 8.39123C19.7506 8.41791 20.064 8.77463 20.0373 9.18799L19.3871 19.2621L19.3857 19.2811C19.3594 19.6573 19.3304 20.0711 19.2529 20.456C19.1725 20.8552 19.0308 21.2765 18.7437 21.6503C18.1425 22.433 17.1195 22.7497 15.6489 22.7497H9.22889C7.75833 22.7497 6.73527 22.433 6.1341 21.6503C5.84699 21.2765 5.7053 20.8552 5.62491 20.456C5.54738 20.0711 5.51841 19.6573 5.49206 19.2811L5.49044 19.258L4.84045 9.18799C4.81377 8.77463 5.12723 8.41791 5.54058 8.39123C5.95394 8.36455 6.31066 8.67801 6.33734 9.09136L6.98706 19.1573C6.98711 19.1579 6.98716 19.1586 6.9872 19.1593C7.01543 19.5621 7.03931 19.8815 7.09538 20.1599C7.14999 20.431 7.2258 20.6091 7.32369 20.7366C7.49252 20.9564 7.90946 21.2497 9.22889 21.2497H15.6489C16.9683 21.2497 17.3853 20.9564 17.5541 20.7366C17.652 20.6091 17.7278 20.431 17.7824 20.1599C17.8385 19.8815 17.8624 19.5621 17.8906 19.1593C17.8906 19.1586 17.8907 19.1579 17.8907 19.1573L18.5405 9.09136C18.5671 8.67801 18.9239 8.36455 19.3372 8.39123Z" fill="#6F7585"/>
<path fill-rule="evenodd" clip-rule="evenodd" d="M10.0186 16.5C10.0186 16.0858 10.3543 15.75 10.7686 15.75H14.0986C14.5128 15.75 14.8486 16.0858 14.8486 16.5C14.8486 16.9142 14.5128 17.25 14.0986 17.25H10.7686C10.3543 17.25 10.0186 16.9142 10.0186 16.5Z" fill="#6F7585"/>
<path fill-rule="evenodd" clip-rule="evenodd" d="M9.18848 12.5C9.18848 12.0858 9.52426 11.75 9.93848 11.75H14.9385C15.3527 11.75 15.6885 12.0858 15.6885 12.5C15.6885 12.9142 15.3527 13.25 14.9385 13.25H9.93848C9.52426 13.25 9.18848 12.9142 9.18848 12.5Z" fill="#6F7585"/>
</svg>
