<svg width="0" height="0" xmlns="http://www.w3.org/2000/svg">
    <defs>
        <symbol fill="none" viewBox="0 0 25 24" id="arrow-down">
            <path d="M20.3586 8.9502L13.8386 15.4702C13.0686 16.2402 11.8086 16.2402 11.0386 15.4702L4.51855 8.9502"
                  stroke="currentColor" stroke-width="1.5" stroke-miterlimit="10" stroke-linecap="round"
                  stroke-linejoin="round"></path>
        </symbol>
        <symbol fill="none" viewBox="0 0 25 24" id="arrow-left">
            <path d="M10.0085 5.92969L3.93848 11.9997L10.0085 18.0697" stroke="currentColor" stroke-width="1.5"
                  stroke-miterlimit="10" stroke-linecap="round" stroke-linejoin="round"></path>
            <path d="M20.9384 12H4.1084" stroke="currentColor" stroke-width="1.5" stroke-miterlimit="10"
                  stroke-linecap="round" stroke-linejoin="round"></path>
        </symbol>
        <symbol fill="none" viewBox="0 0 25 24" id="arrow-up">
            <path d="M20.3586 15.0496L13.8386 8.52965C13.0686 7.75965 11.8086 7.75965 11.0386 8.52965L4.51855 15.0496"
                  stroke="#6F7585" stroke-width="1.5" stroke-miterlimit="10" stroke-linecap="round"
                  stroke-linejoin="round"></path>
        </symbol>
        <symbol fill="none" viewBox="0 0 25 24" id="cancel">
            <path d="M13.8484 12.0002L18.1484 7.71019C18.3367 7.52188 18.4425 7.26649 18.4425 7.00019C18.4425 6.73388 18.3367 6.47849 18.1484 6.29019C17.9601 6.10188 17.7047 5.99609 17.4384 5.99609C17.1721 5.99609 16.9167 6.10188 16.7284 6.29019L12.4384 10.5902L8.14842 6.29019C7.96011 6.10188 7.70472 5.99609 7.43842 5.99609C7.17211 5.99609 6.91672 6.10188 6.72842 6.29019C6.54011 6.47849 6.43432 6.73388 6.43432 7.00019C6.43432 7.26649 6.54011 7.52188 6.72842 7.71019L11.0284 12.0002L6.72842 16.2902C6.63469 16.3831 6.56029 16.4937 6.50952 16.6156C6.45876 16.7375 6.43262 16.8682 6.43262 17.0002C6.43262 17.1322 6.45876 17.2629 6.50952 17.3848C6.56029 17.5066 6.63469 17.6172 6.72842 17.7102C6.82138 17.8039 6.93198 17.8783 7.05384 17.9291C7.1757 17.9798 7.3064 18.006 7.43842 18.006C7.57043 18.006 7.70113 17.9798 7.82299 17.9291C7.94485 17.8783 8.05545 17.8039 8.14842 17.7102L12.4384 13.4102L16.7284 17.7102C16.8214 17.8039 16.932 17.8783 17.0538 17.9291C17.1757 17.9798 17.3064 18.006 17.4384 18.006C17.5704 18.006 17.7011 17.9798 17.823 17.9291C17.9449 17.8783 18.0555 17.8039 18.1484 17.7102C18.2421 17.6172 18.3165 17.5066 18.3673 17.3848C18.4181 17.2629 18.4442 17.1322 18.4442 17.0002C18.4442 16.8682 18.4181 16.7375 18.3673 16.6156C18.3165 16.4937 18.2421 16.3831 18.1484 16.2902L13.8484 12.0002Z"
                  fill="currentColor"></path>
        </symbol>
        <symbol fill="none" viewBox="0 0 25 24" id="edit">
            <path fill-rule="evenodd" clip-rule="evenodd"
                  d="M15.9561 1.43775C17.1228 1.28855 18.3032 1.76567 19.5026 2.89422L19.504 2.89552C20.7075 4.03361 21.2553 5.1881 21.1731 6.36399C21.0937 7.50024 20.435 8.46195 19.6839 9.2555M19.6839 9.2555L11.4779 17.9412C11.2466 18.1931 10.9351 18.4065 10.6398 18.5643C10.3407 18.7243 9.99476 18.8611 9.66997 18.9189L9.66497 18.9197L6.44612 19.4695C5.66556 19.6041 4.91706 19.409 4.38386 18.9034C3.8514 18.3984 3.61612 17.6621 3.70328 16.8776L3.70354 16.8753L4.07514 13.6213C4.1183 13.2976 4.23851 12.9473 4.38022 12.6435C4.52142 12.3407 4.71407 12.0196 4.94206 11.7769L4.94352 11.7754L13.1535 3.08538C13.9051 2.2915 14.8286 1.58192 15.9561 1.43775M14.2433 4.11605C14.2432 4.11618 14.2435 4.11591 14.2433 4.11605L6.03533 12.8039C6.03516 12.8041 6.0355 12.8038 6.03533 12.8039C5.95336 12.8914 5.84075 13.0607 5.73966 13.2774C5.6404 13.4903 5.58079 13.6872 5.56291 13.8138L5.19411 17.0433C5.19407 17.0436 5.19403 17.0439 5.19399 17.0443C5.15148 17.4292 5.27111 17.6776 5.41603 17.815C5.56033 17.9518 5.81183 18.0568 6.19126 17.9913L6.19242 17.9911L9.40953 17.4416C9.5348 17.419 9.72782 17.351 9.93257 17.2415C10.1402 17.1306 10.2963 17.0109 10.3745 16.9251L10.3834 16.9153L18.5935 8.22538C19.2622 7.51904 19.6337 6.87538 19.6768 6.25939C19.7171 5.68293 19.4801 4.93767 18.4742 3.98613C17.4739 3.04514 16.7195 2.85234 16.1463 2.92563C15.5339 3.00394 14.9117 3.41017 14.2433 4.11605Z"
                  fill="currentColor"></path>
            <path fill-rule="evenodd" clip-rule="evenodd"
                  d="M12.2128 4.30983C12.6221 4.24606 13.0055 4.52616 13.0693 4.93543C13.4464 7.35605 15.4109 9.20866 17.8534 9.45466C18.2655 9.49617 18.566 9.86392 18.5245 10.276C18.4829 10.6882 18.1152 10.9886 17.7031 10.9471C14.5855 10.6331 12.07 8.26572 11.5872 5.16634C11.5234 4.75707 11.8035 4.37359 12.2128 4.30983Z"
                  fill="currentColor"></path>
            <path fill-rule="evenodd" clip-rule="evenodd"
                  d="M2.68848 22C2.68848 21.5858 3.02426 21.25 3.43848 21.25H21.4385C21.8527 21.25 22.1885 21.5858 22.1885 22C22.1885 22.4142 21.8527 22.75 21.4385 22.75H3.43848C3.02426 22.75 2.68848 22.4142 2.68848 22Z"
                  fill="currentColor"></path>
        </symbol>
        <symbol fill="none" viewBox="0 0 25 24" id="eye-slash">
            <path fill-rule="evenodd" clip-rule="evenodd"
                  d="M12.4384 9.16992C10.8726 9.16992 9.6084 10.4341 9.6084 11.9999C9.6084 12.5103 9.74233 12.9864 9.97869 13.399L13.8374 9.54021C13.4249 9.30385 12.9488 9.16992 12.4384 9.16992ZM8.1084 11.9999C8.1084 9.60571 10.0442 7.66992 12.4384 7.66992C13.6362 7.66992 14.7145 8.15536 15.4987 8.93959C15.7916 9.23249 15.7916 9.70736 15.4987 10.0003L10.4387 15.0603C10.1458 15.3531 9.67096 15.3531 9.37807 15.0603C8.59384 14.276 8.1084 13.1977 8.1084 11.9999Z"
                  fill="currentColor"></path>
            <path fill-rule="evenodd" clip-rule="evenodd"
                  d="M2.69581 9.00743C5.08673 5.24907 8.59034 2.98047 12.4383 2.98047C14.6879 2.98047 16.8438 3.76408 18.71 5.1717C19.0406 5.42114 19.1065 5.89142 18.8571 6.22211C18.6077 6.5528 18.1374 6.61867 17.8067 6.36923C16.1728 5.13686 14.3287 4.48047 12.4383 4.48047C9.22647 4.48047 6.15021 6.37167 3.96114 9.81301L3.96051 9.814C3.60593 10.3695 3.40332 11.1647 3.40332 12.0055C3.40332 12.8462 3.60593 13.6414 3.96051 14.1969L3.96086 14.1975C4.71463 15.3806 5.58743 16.3935 6.52735 17.2018C6.8414 17.4719 6.87704 17.9454 6.60696 18.2595C6.33688 18.5735 5.86334 18.6092 5.54929 18.3391C4.48921 17.4274 3.52201 16.3003 2.69578 15.0035C2.15061 14.1491 1.90332 13.0545 1.90332 12.0055C1.90332 10.9564 2.15062 9.86185 2.69581 9.00743Z"
                  fill="currentColor"></path>
            <path fill-rule="evenodd" clip-rule="evenodd"
                  d="M20.0185 7.3453C20.3413 7.08569 20.8134 7.13688 21.073 7.45964C21.4569 7.93691 21.834 8.44977 22.1818 8.99785C22.7265 9.85209 22.9736 10.9461 22.9736 11.9947C22.9736 13.0438 22.7263 14.1383 22.1811 14.9927C19.7902 18.7511 16.2866 21.0197 12.4386 21.0197C11.1021 21.0197 9.79342 20.7371 8.56755 20.2209C8.1858 20.0602 8.00663 19.6204 8.16737 19.2387C8.3281 18.8569 8.76788 18.6777 9.14964 18.8385C10.2038 19.2823 11.3151 19.5197 12.4386 19.5197C15.6504 19.5197 18.7267 17.6285 20.9158 14.1872L20.9164 14.1862C21.271 13.6307 21.4736 12.8355 21.4736 11.9947C21.4736 11.154 21.271 10.3588 20.9164 9.80324L20.9153 9.80158C20.6032 9.30966 20.2603 8.84252 19.9042 8.39978C19.6446 8.07702 19.6958 7.60492 20.0185 7.3453Z"
                  fill="currentColor"></path>
            <path fill-rule="evenodd" clip-rule="evenodd"
                  d="M16.0841 11.9628C16.4914 12.0379 16.7607 12.429 16.6856 12.8363C16.3692 14.5522 14.9799 15.9415 13.2641 16.2579C12.8567 16.333 12.4656 16.0637 12.3905 15.6563C12.3154 15.249 12.5847 14.8579 12.9921 14.7828C14.0962 14.5792 15.0069 13.6685 15.2105 12.5643C15.2856 12.157 15.6767 11.8876 16.0841 11.9628Z"
                  fill="currentColor"></path>
            <path fill-rule="evenodd" clip-rule="evenodd"
                  d="M10.4388 13.9999C10.7317 14.2928 10.7317 14.7677 10.4388 15.0606L2.96881 22.5306C2.67591 22.8235 2.20104 22.8235 1.90815 22.5306C1.61525 22.2377 1.61525 21.7628 1.90815 21.4699L9.37815 13.9999C9.67104 13.7071 10.1459 13.7071 10.4388 13.9999Z"
                  fill="currentColor"></path>
            <path fill-rule="evenodd" clip-rule="evenodd"
                  d="M22.9691 1.46967C23.262 1.76256 23.262 2.23744 22.9691 2.53033L15.4991 10.0003C15.2062 10.2932 14.7313 10.2932 14.4384 10.0003C14.1455 9.70744 14.1455 9.23256 14.4384 8.93967L21.9084 1.46967C22.2013 1.17678 22.6762 1.17678 22.9691 1.46967Z"
                  fill="currentColor"></path>
        </symbol>
        <symbol fill="none" viewBox="0 0 25 24" id="eye">
            <path fill-rule="evenodd" clip-rule="evenodd"
                  d="M12.4384 9.16992C10.8726 9.16992 9.6084 10.4341 9.6084 11.9999C9.6084 13.5657 10.8726 14.8299 12.4384 14.8299C14.0042 14.8299 15.2684 13.5657 15.2684 11.9999C15.2684 10.4341 14.0042 9.16992 12.4384 9.16992ZM8.1084 11.9999C8.1084 9.60571 10.0442 7.66992 12.4384 7.66992C14.8326 7.66992 16.7684 9.60571 16.7684 11.9999C16.7684 14.3941 14.8326 16.3299 12.4384 16.3299C10.0442 16.3299 8.1084 14.3941 8.1084 11.9999Z"
                  fill="currentColor"></path>
            <path fill-rule="evenodd" clip-rule="evenodd"
                  d="M2.69581 8.99669C5.08673 5.23833 8.59034 2.96973 12.4383 2.96973C16.2865 2.96973 19.7902 5.23852 22.1811 8.99718C22.7261 9.85152 22.9733 10.9459 22.9733 11.9947C22.9733 13.0436 22.7261 14.1379 22.1811 14.9923C19.7902 18.7509 16.2865 21.0197 12.4383 21.0197C8.59017 21.0197 5.08643 18.7509 2.6955 14.9923C2.15052 14.1379 1.90332 13.0436 1.90332 11.9947C1.90332 10.9457 2.15062 9.8511 2.69581 8.99669ZM12.4383 4.46973C9.22647 4.46973 6.15021 6.36093 3.96114 9.80227L3.96051 9.80325C3.60593 10.3588 3.40332 11.154 3.40332 11.9947C3.40332 12.8355 3.60593 13.6307 3.96051 14.1862L3.96114 14.1872C6.15021 17.6285 9.22647 19.5197 12.4383 19.5197C15.6502 19.5197 18.7264 17.6285 20.9155 14.1872L20.9161 14.1862C21.2707 13.6307 21.4733 12.8355 21.4733 11.9947C21.4733 11.154 21.2707 10.3588 20.9161 9.80325L20.9155 9.80227C18.7264 6.36093 15.6502 4.46973 12.4383 4.46973Z"
                  fill="currentColor"></path>
        </symbol>
        <symbol fill="none" viewBox="0 0 25 24" id="error">
            <path d="M12.4385 22C17.9385 22 22.4385 17.5 22.4385 12C22.4385 6.5 17.9385 2 12.4385 2C6.93848 2 2.43848 6.5 2.43848 12C2.43848 17.5 6.93848 22 12.4385 22Z"
                  fill="#C03221"></path>
            <path fill-rule="evenodd" clip-rule="evenodd"
                  d="M12.4385 7.25C12.8527 7.25 13.1885 7.58579 13.1885 8V13C13.1885 13.4142 12.8527 13.75 12.4385 13.75C12.0243 13.75 11.6885 13.4142 11.6885 13V8C11.6885 7.58579 12.0243 7.25 12.4385 7.25Z"
                  fill="white"></path>
            <path fill-rule="evenodd" clip-rule="evenodd"
                  d="M11.4326 16C11.4326 15.4477 11.8803 15 12.4326 15H12.4416C12.9939 15 13.4416 15.4477 13.4416 16C13.4416 16.5523 12.9939 17 12.4416 17H12.4326C11.8803 17 11.4326 16.5523 11.4326 16Z"
                  fill="white"></path>
        </symbol>
        <symbol fill="none" viewBox="0 0 25 24" id="info">
            <path d="M12.4385 22C17.9385 22 22.4385 17.5 22.4385 12C22.4385 6.5 17.9385 2 12.4385 2C6.93848 2 2.43848 6.5 2.43848 12C2.43848 17.5 6.93848 22 12.4385 22Z"
                  fill="currentColor"></path>
            <path fill-rule="evenodd" clip-rule="evenodd"
                  d="M12.4385 7.25C12.8527 7.25 13.1885 7.58579 13.1885 8V13C13.1885 13.4142 12.8527 13.75 12.4385 13.75C12.0243 13.75 11.6885 13.4142 11.6885 13V8C11.6885 7.58579 12.0243 7.25 12.4385 7.25Z"
                  fill="white"></path>
            <path fill-rule="evenodd" clip-rule="evenodd"
                  d="M11.4326 16C11.4326 15.4477 11.8803 15 12.4326 15H12.4416C12.9939 15 13.4416 15.4477 13.4416 16C13.4416 16.5523 12.9939 17 12.4416 17H12.4326C11.8803 17 11.4326 16.5523 11.4326 16Z"
                  fill="white"></path>
        </symbol>
        <symbol fill="none" viewBox="0 0 25 24" id="logout">
            <path d="M9.33887 7.56023C9.64887 3.96023 11.4989 2.49023 15.5489 2.49023H15.6789C20.1489 2.49023 21.9389 4.28023 21.9389 8.75023V15.2702C21.9389 19.7402 20.1489 21.5302 15.6789 21.5302H15.5489C11.5289 21.5302 9.67887 20.0802 9.34887 16.5402"
                  stroke="#6F7585" stroke-width="1.5" stroke-linecap="round" stroke-linejoin="round"></path>
            <path d="M15.4386 12H4.05859" stroke="#6F7585" stroke-width="1.5" stroke-linecap="round"
                  stroke-linejoin="round"></path>
            <path d="M6.28848 8.65039L2.93848 12.0004L6.28848 15.3504" stroke="#6F7585" stroke-width="1.5"
                  stroke-linecap="round" stroke-linejoin="round"></path>
        </symbol>
        <symbol fill="none" viewBox="0 0 25 24" id="menu">
            <path fill-rule="evenodd" clip-rule="evenodd"
                  d="M2.43848 19.5C2.43848 18.6716 3.02245 18 3.74282 18H21.1341C21.8545 18 22.4385 18.6716 22.4385 19.5C22.4385 20.3284 21.8545 21 21.1341 21H3.74282C3.02245 21 2.43848 20.3284 2.43848 19.5Z"
                  fill="currentColor"></path>
            <path fill-rule="evenodd" clip-rule="evenodd"
                  d="M2.43848 12.5C2.43848 11.6716 3.02245 11 3.74282 11H21.1341C21.8545 11 22.4385 11.6716 22.4385 12.5C22.4385 13.3284 21.8545 14 21.1341 14H3.74282C3.02245 14 2.43848 13.3284 2.43848 12.5Z"
                  fill="currentColor"></path>
            <path fill-rule="evenodd" clip-rule="evenodd"
                  d="M2.43848 5.5C2.43848 4.67157 3.02245 4 3.74282 4H21.1341C21.8545 4 22.4385 4.67157 22.4385 5.5C22.4385 6.32843 21.8545 7 21.1341 7H3.74282C3.02245 7 2.43848 6.32843 2.43848 5.5Z"
                  fill="currentColor"></path>
        </symbol>
        <symbol fill="none" viewBox="0 0 25 24" id="messages">
            <path d="M13.6285 6H7.22848C6.96848 6 6.71848 6.01 6.47848 6.04C3.78848 6.27 2.43848 7.86 2.43848 10.79V14.79C2.43848 18.79 4.03848 19.58 7.22848 19.58H7.62848C7.84848 19.58 8.13848 19.73 8.26848 19.9L9.46848 21.5C9.99848 22.21 10.8585 22.21 11.3885 21.5L12.5885 19.9C12.7385 19.7 12.9785 19.58 13.2285 19.58H13.6285C16.5585 19.58 18.1485 18.24 18.3785 15.54C18.4085 15.3 18.4185 15.05 18.4185 14.79V10.79C18.4185 7.6 16.8185 6 13.6285 6ZM6.93848 14C6.37848 14 5.93848 13.55 5.93848 13C5.93848 12.45 6.38848 12 6.93848 12C7.48848 12 7.93848 12.45 7.93848 13C7.93848 13.55 7.48848 14 6.93848 14ZM10.4285 14C9.86848 14 9.42848 13.55 9.42848 13C9.42848 12.45 9.87848 12 10.4285 12C10.9785 12 11.4285 12.45 11.4285 13C11.4285 13.55 10.9885 14 10.4285 14ZM13.9285 14C13.3685 14 12.9285 13.55 12.9285 13C12.9285 12.45 13.3785 12 13.9285 12C14.4785 12 14.9285 12.45 14.9285 13C14.9285 13.55 14.4785 14 13.9285 14Z"
                  fill="currentColor"></path>
            <path d="M22.4187 6.79V10.79C22.4187 12.79 21.7987 14.15 20.5587 14.9C20.2587 15.08 19.9087 14.84 19.9087 14.49L19.9187 10.79C19.9187 6.79 17.6287 4.5 13.6287 4.5L7.53872 4.51C7.18872 4.51 6.94872 4.16 7.12872 3.86C7.87872 2.62 9.23872 2 11.2287 2H17.6287C20.8187 2 22.4187 3.6 22.4187 6.79Z"
                  fill="currentColor"></path>
        </symbol>
        <symbol fill="none" viewBox="0 0 25 24" id="ok">
            <path fill-rule="evenodd" clip-rule="evenodd"
                  d="M11.5154 17.3141C11.8379 17.5803 12.3151 17.5347 12.5813 17.2122L19.973 8.25896C20.2392 7.93647 20.1936 7.45922 19.8712 7.19298C19.5487 6.92675 19.0714 6.97234 18.8052 7.29483L11.8956 15.6641L7.41893 11.9683C7.09645 11.702 6.61919 11.7476 6.35296 12.0701C6.08672 12.3926 6.13232 12.8698 6.4548 13.1361L11.5076 17.3076C11.5102 17.3098 11.5128 17.3119 11.5154 17.3141Z"
                  fill="currentColor"></path>
        </symbol>
        <symbol fill="none" viewBox="0 0 25 24" id="profile-2user">
            <path d="M9.43848 2C6.81848 2 4.68848 4.13 4.68848 6.75C4.68848 9.32 6.69848 11.4 9.31848 11.49C9.39848 11.48 9.47848 11.48 9.53848 11.49C9.55848 11.49 9.56848 11.49 9.58848 11.49C9.59848 11.49 9.59848 11.49 9.60848 11.49C12.1685 11.4 14.1785 9.32 14.1885 6.75C14.1885 4.13 12.0585 2 9.43848 2Z"
                  fill="currentColor"></path>
            <path d="M14.5184 14.1499C11.7284 12.2899 7.17844 12.2899 4.36844 14.1499C3.09844 14.9999 2.39844 16.1499 2.39844 17.3799C2.39844 18.6099 3.09844 19.7499 4.35844 20.5899C5.75844 21.5299 7.59844 21.9999 9.43844 21.9999C11.2784 21.9999 13.1184 21.5299 14.5184 20.5899C15.7784 19.7399 16.4784 18.5999 16.4784 17.3599C16.4684 16.1299 15.7784 14.9899 14.5184 14.1499Z"
                  fill="currentColor"></path>
            <path d="M20.4288 7.3401C20.5888 9.2801 19.2088 10.9801 17.2988 11.2101C17.2888 11.2101 17.2888 11.2101 17.2788 11.2101H17.2488C17.1888 11.2101 17.1288 11.2101 17.0788 11.2301C16.1088 11.2801 15.2188 10.9701 14.5488 10.4001C15.5788 9.4801 16.1688 8.1001 16.0488 6.6001C15.9788 5.7901 15.6988 5.0501 15.2788 4.4201C15.6588 4.2301 16.0988 4.1101 16.5488 4.0701C18.5088 3.9001 20.2588 5.3601 20.4288 7.3401Z"
                  fill="currentColor"></path>
            <path d="M22.4287 16.5904C22.3487 17.5604 21.7287 18.4004 20.6887 18.9704C19.6887 19.5204 18.4287 19.7804 17.1787 19.7504C17.8987 19.1004 18.3187 18.2904 18.3987 17.4304C18.4987 16.1904 17.9087 15.0004 16.7287 14.0504C16.0587 13.5204 15.2787 13.1004 14.4287 12.7904C16.6387 12.1504 19.4187 12.5804 21.1287 13.9604C22.0487 14.7004 22.5187 15.6304 22.4287 16.5904Z"
                  fill="currentColor"></path>
        </symbol>
        <symbol fill="none" viewBox="0 0 25 24" id="publish">
            <path fill-rule="evenodd" clip-rule="evenodd"
                  d="M4.59381 4.15533C3.67828 5.07086 3.18848 6.57397 3.18848 9V15C3.18848 17.426 3.67828 18.9291 4.59381 19.8447C5.50934 20.7602 7.01245 21.25 9.43848 21.25H15.4385C17.8645 21.25 19.3676 20.7602 20.2831 19.8447C21.1987 18.9291 21.6885 17.426 21.6885 15V10C21.6885 9.58579 22.0243 9.25 22.4385 9.25C22.8527 9.25 23.1885 9.58579 23.1885 10V15C23.1885 17.574 22.6783 19.5709 21.3438 20.9053C20.0093 22.2398 18.0124 22.75 15.4385 22.75H9.43848C6.8645 22.75 4.86762 22.2398 3.53315 20.9053C2.19868 19.5709 1.68848 17.574 1.68848 15V9C1.68848 6.42603 2.19868 4.42914 3.53315 3.09467C4.86762 1.7602 6.8645 1.25 9.43848 1.25H14.4385C14.8527 1.25 15.1885 1.58579 15.1885 2C15.1885 2.41421 14.8527 2.75 14.4385 2.75H9.43848C7.01245 2.75 5.50934 3.2398 4.59381 4.15533Z"
                  fill="currentColor"></path>
            <path fill-rule="evenodd" clip-rule="evenodd"
                  d="M14.1515 1.30711C14.4317 1.19103 14.7543 1.25519 14.9688 1.46969L22.9688 9.46969C23.1833 9.68419 23.2475 10.0068 23.1314 10.287C23.0153 10.5673 22.7418 10.75 22.4385 10.75H18.4385C16.8969 10.75 15.6306 10.5028 14.7831 9.65535C13.9357 8.80793 13.6885 7.54157 13.6885 6.00002V2.00002C13.6885 1.69668 13.8712 1.4232 14.1515 1.30711ZM15.1885 3.81068V6.00002C15.1885 7.45847 15.4412 8.19211 15.8438 8.59469C16.2464 8.99727 16.98 9.25002 18.4385 9.25002H20.6278L15.1885 3.81068Z"
                  fill="currentColor"></path>
            <path fill-rule="evenodd" clip-rule="evenodd"
                  d="M13.4688 12.4697C13.7617 12.7626 13.7617 13.2374 13.4688 13.5303L9.46881 17.5303C9.32815 17.671 9.13739 17.75 8.93848 17.75C8.73956 17.75 8.5488 17.671 8.40815 17.5303L6.90815 16.0303C6.61525 15.7374 6.61525 15.2626 6.90815 14.9697C7.20104 14.6768 7.67591 14.6768 7.96881 14.9697L8.93848 15.9393L12.4081 12.4697C12.701 12.1768 13.1759 12.1768 13.4688 12.4697Z"
                  fill="currentColor"></path>
        </symbol>
        <symbol fill="none" viewBox="0 0 25 24" id="trash">
            <path fill-rule="evenodd" clip-rule="evenodd"
                  d="M5.40426 5.03415C7.40881 4.83171 9.4136 4.73047 11.4185 4.73047C14.7839 4.73047 18.1586 4.90176 21.5125 5.23412C21.9247 5.27497 22.2257 5.64224 22.1849 6.05443C22.144 6.46663 21.7768 6.76766 21.3646 6.72681C18.0585 6.39918 14.7332 6.23047 11.4185 6.23047C9.46383 6.23047 7.50899 6.32919 5.55391 6.52667L5.55171 6.52689L3.51171 6.72689C3.09947 6.76731 2.73252 6.46588 2.69211 6.05365C2.65169 5.64141 2.95312 5.27446 3.36535 5.23405L5.40426 5.03415Z"
                  fill="currentColor"></path>
            <path fill-rule="evenodd" clip-rule="evenodd"
                  d="M9.89818 3.78456L9.67824 5.09421C9.60963 5.50271 9.22287 5.77824 8.81438 5.70964C8.40589 5.64104 8.13035 5.25428 8.19895 4.84578L8.41895 3.53579C8.4228 3.51297 8.42675 3.48908 8.43076 3.46487C8.49962 3.04899 8.60063 2.43887 9.00733 1.97769C9.48139 1.44012 10.2047 1.25 11.1286 1.25H13.7486C14.6837 1.25 15.4063 1.4554 15.8776 1.99845C16.2848 2.46776 16.3833 3.08006 16.4491 3.48891C16.4523 3.5088 16.4554 3.52822 16.4585 3.54711L16.6781 4.84486C16.7472 5.25326 16.4721 5.64037 16.0637 5.70949C15.6553 5.7786 15.2682 5.50355 15.1991 5.09514L14.9784 3.79069C14.8947 3.27767 14.8418 3.09352 14.7446 2.98155C14.6909 2.9196 14.5035 2.75 13.7486 2.75H11.1286C10.3625 2.75 10.1808 2.91488 10.1324 2.96981C10.0402 3.07427 9.98826 3.24976 9.89818 3.78456Z"
                  fill="currentColor"></path>
            <path fill-rule="evenodd" clip-rule="evenodd"
                  d="M19.3372 8.39123C19.7506 8.41791 20.064 8.77463 20.0373 9.18799L19.3871 19.2621L19.3857 19.2811C19.3594 19.6573 19.3304 20.0711 19.2529 20.456C19.1725 20.8552 19.0308 21.2765 18.7437 21.6503C18.1425 22.433 17.1195 22.7497 15.6489 22.7497H9.22889C7.75833 22.7497 6.73527 22.433 6.1341 21.6503C5.84699 21.2765 5.7053 20.8552 5.62491 20.456C5.54738 20.0711 5.51841 19.6573 5.49206 19.2811L5.49044 19.258L4.84045 9.18799C4.81377 8.77463 5.12723 8.41791 5.54058 8.39123C5.95394 8.36455 6.31066 8.67801 6.33734 9.09136L6.98706 19.1573C6.98711 19.1579 6.98716 19.1586 6.9872 19.1593C7.01543 19.5621 7.03931 19.8815 7.09538 20.1599C7.14999 20.431 7.2258 20.6091 7.32369 20.7366C7.49252 20.9564 7.90946 21.2497 9.22889 21.2497H15.6489C16.9683 21.2497 17.3853 20.9564 17.5541 20.7366C17.652 20.6091 17.7278 20.431 17.7824 20.1599C17.8385 19.8815 17.8624 19.5621 17.8906 19.1593C17.8906 19.1586 17.8907 19.1579 17.8907 19.1573L18.5405 9.09136C18.5671 8.67801 18.9239 8.36455 19.3372 8.39123Z"
                  fill="currentColor"></path>
            <path fill-rule="evenodd" clip-rule="evenodd"
                  d="M10.0186 16.5C10.0186 16.0858 10.3543 15.75 10.7686 15.75H14.0986C14.5128 15.75 14.8486 16.0858 14.8486 16.5C14.8486 16.9142 14.5128 17.25 14.0986 17.25H10.7686C10.3543 17.25 10.0186 16.9142 10.0186 16.5Z"
                  fill="currentColor"></path>
            <path fill-rule="evenodd" clip-rule="evenodd"
                  d="M9.18848 12.5C9.18848 12.0858 9.52426 11.75 9.93848 11.75H14.9385C15.3527 11.75 15.6885 12.0858 15.6885 12.5C15.6885 12.9142 15.3527 13.25 14.9385 13.25H9.93848C9.52426 13.25 9.18848 12.9142 9.18848 12.5Z"
                  fill="currentColor"></path>
        </symbol>
        <symbol fill="none" viewBox="0 0 25 24" id="unPublishIcon">
            <path fill-rule="evenodd" clip-rule="evenodd"
                  d="M4.59381 4.15533C3.67828 5.07086 3.18848 6.57397 3.18848 9V15C3.18848 17.426 3.67828 18.9291 4.59381 19.8447C5.50934 20.7602 7.01245 21.25 9.43848 21.25H15.4385C17.8645 21.25 19.3676 20.7602 20.2831 19.8447C21.1987 18.9291 21.6885 17.426 21.6885 15V10C21.6885 9.58579 22.0243 9.25 22.4385 9.25C22.8527 9.25 23.1885 9.58579 23.1885 10V15C23.1885 17.574 22.6783 19.5709 21.3438 20.9053C20.0093 22.2398 18.0124 22.75 15.4385 22.75H9.43848C6.8645 22.75 4.86762 22.2398 3.53315 20.9053C2.19868 19.5709 1.68848 17.574 1.68848 15V9C1.68848 6.42603 2.19868 4.42914 3.53315 3.09467C4.86762 1.7602 6.8645 1.25 9.43848 1.25H14.4385C14.8527 1.25 15.1885 1.58579 15.1885 2C15.1885 2.41421 14.8527 2.75 14.4385 2.75H9.43848C7.01245 2.75 5.50934 3.2398 4.59381 4.15533Z"
                  fill="currentColor"></path>
            <path fill-rule="evenodd" clip-rule="evenodd"
                  d="M14.1515 1.30711C14.4317 1.19103 14.7543 1.25519 14.9688 1.46969L22.9688 9.46969C23.1833 9.68419 23.2475 10.0068 23.1314 10.287C23.0153 10.5673 22.7418 10.75 22.4385 10.75H18.4385C16.8969 10.75 15.6306 10.5028 14.7831 9.65535C13.9357 8.80793 13.6885 7.54157 13.6885 6.00002V2.00002C13.6885 1.69668 13.8712 1.4232 14.1515 1.30711ZM15.1885 3.81068V6.00002C15.1885 7.45847 15.4412 8.19211 15.8438 8.59469C16.2464 8.99727 16.98 9.25002 18.4385 9.25002H20.6278L15.1885 3.81068Z"
                  fill="currentColor"></path>
            <path fill-rule="evenodd" clip-rule="evenodd"
                  d="M6.94819 12.4697C7.24108 12.1768 7.71595 12.1768 8.00885 12.4697L11.9688 16.4297C12.2617 16.7226 12.2617 17.1974 11.9688 17.4903C11.676 17.7832 11.2011 17.7832 10.9082 17.4903L6.94819 13.5303C6.65529 13.2374 6.65529 12.7626 6.94819 12.4697Z"
                  fill="currentColor"></path>
            <path fill-rule="evenodd" clip-rule="evenodd"
                  d="M11.9288 12.5097C12.2217 12.8026 12.2217 13.2775 11.9288 13.5704L7.96881 17.5304C7.67591 17.8233 7.20104 17.8233 6.90815 17.5304C6.61525 17.2375 6.61525 16.7626 6.90815 16.4697L10.8681 12.5097C11.161 12.2168 11.6359 12.2168 11.9288 12.5097Z"
                  fill="currentColor"></path>
        </symbol>
        <symbol fill="none" viewBox="0 0 25 24" id="user">
            <path d="M12.4385 12C15.1999 12 17.4385 9.76142 17.4385 7C17.4385 4.23858 15.1999 2 12.4385 2C9.67705 2 7.43848 4.23858 7.43848 7C7.43848 9.76142 9.67705 12 12.4385 12Z"
                  fill="currentColor"></path>
            <path d="M12.4386 14.5C7.42863 14.5 3.34863 17.86 3.34863 22C3.34863 22.28 3.56863 22.5 3.84863 22.5H21.0286C21.3086 22.5 21.5286 22.28 21.5286 22C21.5286 17.86 17.4486 14.5 12.4386 14.5Z"
                  fill="currentColor"></path>
        </symbol>
        <symbol fill="none" viewBox="0 0 25 24" id="users">
            <path d="M9.43848 2C6.81848 2 4.68848 4.13 4.68848 6.75C4.68848 9.32 6.69848 11.4 9.31848 11.49C9.39848 11.48 9.47848 11.48 9.53848 11.49C9.55848 11.49 9.56848 11.49 9.58848 11.49C9.59848 11.49 9.59848 11.49 9.60848 11.49C12.1685 11.4 14.1785 9.32 14.1885 6.75C14.1885 4.13 12.0585 2 9.43848 2Z"
                  fill="currentColor"></path>
            <path d="M14.5184 14.1499C11.7284 12.2899 7.17844 12.2899 4.36844 14.1499C3.09844 14.9999 2.39844 16.1499 2.39844 17.3799C2.39844 18.6099 3.09844 19.7499 4.35844 20.5899C5.75844 21.5299 7.59844 21.9999 9.43844 21.9999C11.2784 21.9999 13.1184 21.5299 14.5184 20.5899C15.7784 19.7399 16.4784 18.5999 16.4784 17.3599C16.4684 16.1299 15.7784 14.9899 14.5184 14.1499Z"
                  fill="currentColor"></path>
            <path d="M20.4288 7.3401C20.5888 9.2801 19.2088 10.9801 17.2988 11.2101C17.2888 11.2101 17.2888 11.2101 17.2788 11.2101H17.2488C17.1888 11.2101 17.1288 11.2101 17.0788 11.2301C16.1088 11.2801 15.2188 10.9701 14.5488 10.4001C15.5788 9.4801 16.1688 8.1001 16.0488 6.6001C15.9788 5.7901 15.6988 5.0501 15.2788 4.4201C15.6588 4.2301 16.0988 4.1101 16.5488 4.0701C18.5088 3.9001 20.2588 5.3601 20.4288 7.3401Z"
                  fill="currentColor"></path>
            <path d="M22.4287 16.5904C22.3487 17.5604 21.7287 18.4004 20.6887 18.9704C19.6887 19.5204 18.4287 19.7804 17.1787 19.7504C17.8987 19.1004 18.3187 18.2904 18.3987 17.4304C18.4987 16.1904 17.9087 15.0004 16.7287 14.0504C16.0587 13.5204 15.2787 13.1004 14.4287 12.7904C16.6387 12.1504 19.4187 12.5804 21.1287 13.9604C22.0487 14.7004 22.5187 15.6304 22.4287 16.5904Z"
                  fill="currentColor"></path>
        </symbol>
        <symbol fill="none" viewBox="0 0 25 24" id="isPublishedIcon">
            <circle cx="40%" cy="50%" r="10" fill="#14994B"/>
        </symbol>
        <symbol fill="none" viewBox="0 0 25 24" id="isUnpublishedIcon">
            <circle cx="40%" cy="50%" r="10" fill="#D1D5E6"/>
        </symbol>
    </defs>
</svg>