<svg width="367" height="57" viewBox="0 0 367 57" fill="none" xmlns="http://www.w3.org/2000/svg">
<path d="M1.56648 55V50.968C3.48648 50.968 4.83048 50.52 5.59848 49.624C6.36648 48.728 6.81448 47.48 6.94248 45.88C7.13448 44.28 7.23048 42.424 7.23048 40.312V20.344C7.23048 19.32 7.23048 18.232 7.23048 17.08C7.29448 15.864 7.42248 14.68 7.61448 13.528C6.52648 13.592 5.37448 13.656 4.15848 13.72C2.94248 13.72 1.82248 13.752 0.798477 13.816V8.728C3.67848 8.728 5.91848 8.6 7.51848 8.344C9.18248 8.024 10.4305 7.672 11.2625 7.288C12.1585 6.904 12.8305 6.488 13.2785 6.04H16.7345C16.8625 6.68 16.9265 7.448 16.9265 8.344C16.9905 9.176 17.0545 10.072 17.1185 11.032C19.1025 9.368 21.3425 8.024 23.8385 7C26.3985 5.976 28.8625 5.464 31.2305 5.464C34.3665 5.464 36.9585 6.04 39.0065 7.192C41.1185 8.28 42.7825 9.848 43.9985 11.896C46.2385 10.04 48.7665 8.504 51.5825 7.288C54.3985 6.072 57.1505 5.464 59.8385 5.464C65.2785 5.464 69.3105 7.096 71.9345 10.36C74.5585 13.56 75.8385 18.936 75.7745 26.488L75.6785 43.096C75.6785 44.248 75.6465 45.432 75.5825 46.648C75.5825 47.8 75.4865 48.984 75.2945 50.2C76.3185 50.136 77.3745 50.104 78.4625 50.104C79.5505 50.04 80.5425 49.976 81.4385 49.912V55H60.3185V50.968C62.1105 50.968 63.3585 50.52 64.0625 49.624C64.8305 48.728 65.2785 47.48 65.4065 45.88C65.5985 44.28 65.6945 42.424 65.6945 40.312V26.488C65.6305 21.432 64.7985 17.72 63.1985 15.352C61.5985 12.984 59.1665 11.8 55.9025 11.8C54.0465 11.8 52.2225 12.216 50.4305 13.048C48.6385 13.816 47.0385 14.808 45.6305 16.024C45.9505 17.112 46.1745 18.328 46.3025 19.672C46.4945 20.952 46.5905 22.296 46.5905 23.704C46.5265 26.904 46.4945 30.136 46.4945 33.4C46.4945 36.6 46.4945 39.832 46.4945 43.096C46.4945 44.248 46.4625 45.432 46.3985 46.648C46.3345 47.8 46.2385 48.984 46.1105 50.2C47.1345 50.136 48.1585 50.104 49.1825 50.104C50.2705 50.04 51.2625 49.976 52.1585 49.912V55H30.8465V50.968C32.7665 50.968 34.0785 50.52 34.7825 49.624C35.5505 48.728 35.9985 47.48 36.1265 45.88C36.3185 44.28 36.4145 42.424 36.4145 40.312V26.392C36.4785 21.336 35.7425 17.624 34.2065 15.256C32.7345 12.824 30.3665 11.64 27.1025 11.704C25.2465 11.704 23.4545 12.12 21.7265 12.952C19.9985 13.72 18.4945 14.712 17.2145 15.928C17.2145 16.696 17.2145 17.496 17.2145 18.328C17.2785 19.16 17.3105 20.056 17.3105 21.016V43.096C17.3105 44.248 17.2785 45.432 17.2145 46.648C17.1505 47.8 17.0545 48.984 16.9265 50.2C17.9505 50.136 18.9745 50.104 19.9985 50.104C21.0225 50.04 21.9825 49.976 22.8785 49.912V55H1.56648Z" fill="#131723"/>
<path d="M98.9697 49.9375C98.9697 47.6875 97.9697 46.0312 95.9697 44.9688C95.1572 44.5312 94.3135 44.3125 93.4385 44.3125C91.126 44.3125 89.4697 45.375 88.4697 47.5C88.0947 48.3125 87.9072 49.125 87.9072 49.9375C87.9072 52.3125 88.9697 54 91.0947 55C91.8447 55.3125 92.626 55.4688 93.4385 55.4688C95.6885 55.4688 97.3447 54.4375 98.4072 52.375C98.7822 51.5625 98.9697 50.75 98.9697 49.9375ZM168.098 39.256V55H137.762V39.256H141.794V23.512C141.794 21.4 141.346 19.864 140.45 18.904C139.554 17.88 138.21 17.368 136.418 17.368C132.578 17.368 130.658 19.416 130.658 23.512V39.256H134.69V55H104.354V39.256H108.578V17.368H104.354V1.62399H130.658V9.112C135.266 3.224 141.026 0.279995 147.938 0.279995C153.25 0.279995 157.218 1.944 159.842 5.272C162.53 8.6 163.874 13.176 163.874 19V39.256H168.098ZM199.806 56.344C190.718 56.344 183.614 53.976 178.494 49.24C173.374 44.44 170.814 37.464 170.814 28.312C170.814 19.16 173.374 12.216 178.494 7.48C183.614 2.68 190.718 0.279995 199.806 0.279995C208.83 0.279995 215.326 2.648 219.294 7.384C223.326 12.056 225.342 17.88 225.342 24.856V31.768H194.238V32.344C194.238 34.712 194.942 36.472 196.35 37.624C197.758 38.712 200.094 39.256 203.358 39.256C207.262 39.256 210.974 38.968 214.494 38.392C218.014 37.816 221.086 37.08 223.71 36.184V51.544C221.47 52.76 218.174 53.88 213.822 54.904C209.534 55.864 204.862 56.344 199.806 56.344ZM205.374 21.208V20.056C205.374 17.88 204.894 16.312 203.934 15.352C203.038 14.392 201.662 13.912 199.806 13.912C197.95 13.912 196.542 14.424 195.582 15.448C194.686 16.408 194.238 17.944 194.238 20.056V21.208H205.374ZM244.134 55L231.462 17.368H227.43V1.62399H257.094V17.368H253.062L256.518 32.344H257.478L264.486 1.62399H282.15L289.158 32.344H290.118L293.478 17.368H289.446V1.62399H317.286V17.368H313.254L301.062 55H277.734L272.454 28.312H271.494L266.214 55H244.134ZM343.307 56.344C335.243 56.344 327.467 55.064 319.979 52.504V38.296H335.531V39.256C335.531 42.328 337.483 43.864 341.387 43.864C344.843 43.864 346.571 42.68 346.571 40.312C346.571 39.032 346.059 38.072 345.035 37.432C344.075 36.792 342.347 36.248 339.851 35.8L335.051 34.936C325.003 33.144 319.979 27.448 319.979 17.848C319.979 12.28 322.091 7.96 326.315 4.888C330.539 1.816 336.235 0.279995 343.403 0.279995C351.403 0.279995 358.155 1.624 363.659 4.312V17.656H349.067V16.696C349.067 15.416 348.619 14.456 347.723 13.816C346.891 13.112 345.643 12.76 343.979 12.76C340.779 12.76 339.179 13.784 339.179 15.832C339.179 16.92 339.627 17.752 340.523 18.328C341.419 18.904 343.051 19.448 345.419 19.96L350.891 21.016C356.587 22.104 360.651 24.12 363.083 27.064C365.515 30.008 366.731 33.784 366.731 38.392C366.731 44.216 364.683 48.664 360.587 51.736C356.555 54.808 350.795 56.344 343.307 56.344Z" fill="white"/>
</svg>
