<svg width="138" height="22" viewBox="0 0 138 22" fill="none" xmlns="http://www.w3.org/2000/svg">
<path d="M0.986477 21V19.488C1.70648 19.488 2.21048 19.32 2.49848 18.984C2.78648 18.648 2.95448 18.18 3.00248 17.58C3.07448 16.98 3.11048 16.284 3.11048 15.492V8.004C3.11048 7.62 3.11048 7.212 3.11048 6.78C3.13448 6.324 3.18248 5.88 3.25448 5.448C2.84648 5.472 2.41448 5.496 1.95848 5.52C1.50248 5.52 1.08248 5.532 0.698477 5.556V3.648C1.77848 3.648 2.61848 3.6 3.21848 3.504C3.84248 3.384 4.31048 3.252 4.62248 3.108C4.95848 2.964 5.21048 2.808 5.37848 2.64H6.67448C6.72248 2.88 6.74648 3.168 6.74648 3.504C6.77048 3.816 6.79448 4.152 6.81848 4.512C7.56248 3.888 8.40248 3.384 9.33848 3C10.2985 2.616 11.2225 2.424 12.1105 2.424C13.2865 2.424 14.2585 2.64 15.0265 3.072C15.8185 3.48 16.4425 4.068 16.8985 4.836C17.7385 4.14 18.6865 3.564 19.7425 3.108C20.7985 2.652 21.8305 2.424 22.8385 2.424C24.8785 2.424 26.3905 3.036 27.3745 4.26C28.3585 5.46 28.8385 7.476 28.8145 10.308L28.7785 16.536C28.7785 16.968 28.7665 17.412 28.7425 17.868C28.7425 18.3 28.7065 18.744 28.6345 19.2C29.0185 19.176 29.4145 19.164 29.8225 19.164C30.2305 19.14 30.6025 19.116 30.9385 19.092V21H23.0185V19.488C23.6905 19.488 24.1585 19.32 24.4225 18.984C24.7105 18.648 24.8785 18.18 24.9265 17.58C24.9985 16.98 25.0345 16.284 25.0345 15.492V10.308C25.0105 8.412 24.6985 7.02 24.0985 6.132C23.4985 5.244 22.5865 4.8 21.3625 4.8C20.6665 4.8 19.9825 4.956 19.3105 5.268C18.6385 5.556 18.0385 5.928 17.5105 6.384C17.6305 6.792 17.7145 7.248 17.7625 7.752C17.8345 8.232 17.8705 8.736 17.8705 9.264C17.8465 10.464 17.8345 11.676 17.8345 12.9C17.8345 14.1 17.8345 15.312 17.8345 16.536C17.8345 16.968 17.8225 17.412 17.7985 17.868C17.7745 18.3 17.7385 18.744 17.6905 19.2C18.0745 19.176 18.4585 19.164 18.8425 19.164C19.2505 19.14 19.6225 19.116 19.9585 19.092V21H11.9665V19.488C12.6865 19.488 13.1785 19.32 13.4425 18.984C13.7305 18.648 13.8985 18.18 13.9465 17.58C14.0185 16.98 14.0545 16.284 14.0545 15.492V10.272C14.0785 8.376 13.8025 6.984 13.2265 6.096C12.6745 5.184 11.7865 4.74 10.5625 4.764C9.86648 4.764 9.19448 4.92 8.54648 5.232C7.89848 5.52 7.33448 5.892 6.85448 6.348C6.85448 6.636 6.85448 6.936 6.85448 7.248C6.87848 7.56 6.89048 7.896 6.89048 8.256V16.536C6.89048 16.968 6.87848 17.412 6.85448 17.868C6.83048 18.3 6.79448 18.744 6.74648 19.2C7.13048 19.176 7.51448 19.164 7.89848 19.164C8.28248 19.14 8.64248 19.116 8.97848 19.092V21H0.986477Z" fill="#6F7585"/>
<path d="M37.5127 19.1016C37.5127 18.2578 37.1377 17.6367 36.3877 17.2383C36.083 17.0742 35.7666 16.9922 35.4385 16.9922C34.5713 16.9922 33.9502 17.3906 33.5752 18.1875C33.4346 18.4922 33.3643 18.7969 33.3643 19.1016C33.3643 19.9922 33.7627 20.625 34.5596 21C34.8408 21.1172 35.1338 21.1758 35.4385 21.1758C36.2822 21.1758 36.9033 20.7891 37.3018 20.0156C37.4424 19.7109 37.5127 19.4062 37.5127 19.1016ZM63.4358 15.096V21H52.0598V15.096H53.5718V9.192C53.5718 8.4 53.4038 7.824 53.0678 7.464C52.7318 7.08 52.2278 6.888 51.5558 6.888C50.1158 6.888 49.3958 7.656 49.3958 9.192V15.096H50.9078V21H39.5318V15.096H41.1158V6.888H39.5318V0.983998H49.3958V3.792C51.1238 1.584 53.2838 0.479998 55.8758 0.479998C57.8678 0.479998 59.3558 1.104 60.3398 2.352C61.3478 3.6 61.8518 5.316 61.8518 7.5V15.096H63.4358ZM75.3262 21.504C71.9182 21.504 69.2542 20.616 67.3342 18.84C65.4142 17.04 64.4542 14.424 64.4542 10.992C64.4542 7.56 65.4142 4.956 67.3342 3.18C69.2542 1.38 71.9182 0.479998 75.3262 0.479998C78.7102 0.479998 81.1462 1.368 82.6342 3.144C84.1462 4.896 84.9022 7.08 84.9022 9.696V12.288H73.2382V12.504C73.2382 13.392 73.5022 14.052 74.0302 14.484C74.5582 14.892 75.4342 15.096 76.6582 15.096C78.1222 15.096 79.5142 14.988 80.8342 14.772C82.1542 14.556 83.3062 14.28 84.2902 13.944V19.704C83.4502 20.16 82.2142 20.58 80.5822 20.964C78.9742 21.324 77.2222 21.504 75.3262 21.504ZM77.4142 8.328V7.896C77.4142 7.08 77.2342 6.492 76.8742 6.132C76.5382 5.772 76.0222 5.592 75.3262 5.592C74.6302 5.592 74.1022 5.784 73.7422 6.168C73.4062 6.528 73.2382 7.104 73.2382 7.896V8.328H77.4142ZM91.9492 21L87.1972 6.888H85.6852V0.983998H96.8092V6.888H95.2972L96.5932 12.504H96.9532L99.5812 0.983998H106.205L108.833 12.504H109.193L110.453 6.888H108.941V0.983998H119.381V6.888H117.869L113.297 21H104.549L102.569 10.992H102.209L100.229 21H91.9492ZM129.139 21.504C126.115 21.504 123.199 21.024 120.391 20.064V14.736H126.223V15.096C126.223 16.248 126.955 16.824 128.419 16.824C129.715 16.824 130.363 16.38 130.363 15.492C130.363 15.012 130.171 14.652 129.787 14.412C129.427 14.172 128.779 13.968 127.843 13.8L126.043 13.476C122.275 12.804 120.391 10.668 120.391 7.068C120.391 4.98 121.183 3.36 122.767 2.208C124.351 1.056 126.487 0.479998 129.175 0.479998C132.175 0.479998 134.707 0.983999 136.771 1.992V6.996H131.299V6.636C131.299 6.156 131.131 5.796 130.795 5.556C130.483 5.292 130.015 5.16 129.391 5.16C128.191 5.16 127.591 5.544 127.591 6.312C127.591 6.72 127.759 7.032 128.095 7.248C128.431 7.464 129.043 7.668 129.931 7.86L131.983 8.256C134.119 8.664 135.643 9.42 136.555 10.524C137.467 11.628 137.923 13.044 137.923 14.772C137.923 16.956 137.155 18.624 135.619 19.776C134.107 20.928 131.947 21.504 129.139 21.504Z" fill="#0F69BD"/>
</svg>
